<?xml version="1.0" encoding="iso-8859-1"?>
<!-- Generator: Adobe Illustrator 18.0.0, SVG Export Plug-In . SVG Version: 6.00 Build 0)  -->
<!DOCTYPE svg PUBLIC "-//W3C//DTD SVG 1.1//EN" "http://www.w3.org/Graphics/SVG/1.1/DTD/svg11.dtd">
<svg version="1.1" id="Capa_1" xmlns="http://www.w3.org/2000/svg" xmlns:xlink="http://www.w3.org/1999/xlink" x="0px" y="0px"
	 viewBox="0 0 355.521 355.521" style="enable-background:new 0 0 355.521 355.521;" xml:space="preserve">
<g>
	<g>
		<path style="fill:#CE593F;" d="M210.832,211.803c0-18.972,5.527-28.92,10.404-37.698c4.567-8.222,8.511-15.323,8.511-30.4
			c0-15.075-3.944-22.174-8.511-30.395c-4.877-8.778-10.404-18.727-10.404-37.699c0-18.971,5.527-29.057,10.404-37.834
			c2.32-4.176,4.478-7.993,6.041-12.993h-16.581c-1.237,14-5.892,22.782-10.078,30.317c-4.567,8.221-8.511,15.388-8.511,30.464
			c0,15.076,3.944,22.211,8.511,30.433c4.876,8.777,10.403,18.742,10.403,37.713c0,18.973-5.526,28.931-10.403,37.71
			c-4.567,8.221-8.511,15.325-8.511,30.402c0,15.077,3.944,22.18,8.511,30.402c4.876,8.778,10.403,18.729,10.403,37.701
			s-5.526,29.571-10.403,38.349c-2.321,4.177-4.478,8.509-6.04,13.509h16.567c1.234-16,5.902-23.292,10.09-30.831
			c4.567-8.222,8.511-15.647,8.511-30.724c0-15.077-3.944-22.34-8.511-30.562C216.359,240.887,210.832,230.775,210.832,211.803z"/>
		<path style="fill:#CE593F;" d="M228.736,19.277c0.06-0.32,0.123-0.637,0.179-0.966C228.859,18.641,228.796,18.957,228.736,19.277z
			"/>
		<path style="fill:#CE593F;" d="M227.282,25.043c0.043-0.133,0.08-0.276,0.122-0.411C227.362,24.767,227.325,24.91,227.282,25.043z
			"/>
		<path style="fill:#CE593F;" d="M228.062,22.332c0.079-0.306,0.152-0.623,0.226-0.937
			C228.214,21.709,228.141,22.026,228.062,22.332z"/>
	</g>
	<g>
		<path style="fill:#CE593F;" d="M143.945,268.666c-0.047-0.338-0.089-0.684-0.14-1.015
			C143.856,267.982,143.898,268.328,143.945,268.666z"/>
		<path style="fill:#CE593F;" d="M141.947,211.803c0-18.972,5.527-28.92,10.403-37.698c4.567-8.222,8.512-15.323,8.512-30.4
			c0-15.075-3.944-22.174-8.511-30.395c-4.876-8.778-10.404-18.727-10.404-37.699c0-18.971,5.527-29.057,10.404-37.834
			c2.319-4.175,4.475-7.993,6.038-12.993h-9.002c-1.234,14-5.902,22.779-10.09,30.317c-4.567,8.221-8.511,15.388-8.511,30.464
			c0,9.004,1.413,15.19,3.519,20.442c-0.006-0.011-0.012-0.005-0.018-0.016c1.835,3.304,3.762,6.784,5.453,10.839
			c-0.005-0.011-0.009-0.019-0.014-0.03c4.766,8.595,9.975,18.507,9.975,36.927c0,18.973-5.527,28.923-10.404,37.702
			c-4.567,8.221-8.511,15.321-8.511,30.398c0,9.009,1.414,15.163,3.522,20.416c-0.007-0.013-0.015-0.026-0.022-0.039
			c1.831,3.296,3.753,6.756,5.44,10.798c4.766,8.594,9.975,18.505,9.975,36.926c0,18.973-5.527,29.57-10.404,38.348
			c-2.321,4.178-4.48,8.509-6.043,13.509h9.019c1.237-16,5.892-23.295,10.079-30.831c4.567-8.222,8.511-15.647,8.511-30.724
			c0-15.077-3.944-22.34-8.511-30.562C147.474,240.887,141.947,230.775,141.947,211.803z"/>
		<path style="fill:#CE593F;" d="M144.351,272.258c-0.037-0.411-0.075-0.817-0.117-1.218
			C144.276,271.441,144.315,271.847,144.351,272.258z"/>
		<path style="fill:#CE593F;" d="M144.599,275.977c-0.017-0.399-0.044-0.782-0.066-1.173
			C144.555,275.195,144.582,275.578,144.599,275.977z"/>
		<path style="fill:#CE593F;" d="M141.809,258.811c-0.092-0.3-0.184-0.597-0.278-0.891
			C141.625,258.213,141.718,258.511,141.809,258.811z"/>
		<path style="fill:#CE593F;" d="M143.262,264.546c-0.001-0.006-0.002-0.013-0.003-0.019
			C143.26,264.532,143.261,264.539,143.262,264.546z"/>
		<path style="fill:#CE593F;" d="M140.917,256.11c-0.088-0.248-0.174-0.501-0.265-0.745
			C140.743,255.609,140.829,255.862,140.917,256.11z"/>
		<path style="fill:#CE593F;" d="M144.532,138.604c0.022,0.391,0.049,0.775,0.066,1.175
			C144.581,139.379,144.555,138.996,144.532,138.604z"/>
		<path style="fill:#CE593F;" d="M142.586,261.593c-0.073-0.289-0.152-0.567-0.228-0.85
			C142.434,261.026,142.513,261.303,142.586,261.593z"/>
		<path style="fill:#CE593F;" d="M159.174,22.328c0.079-0.303,0.15-0.617,0.224-0.928C159.325,21.71,159.253,22.025,159.174,22.328z
			"/>
		<path style="fill:#CE593F;" d="M144.233,134.836c0.042,0.405,0.082,0.815,0.119,1.23
			C144.315,135.651,144.275,135.24,144.233,134.836z"/>
		<path style="fill:#CE593F;" d="M140.651,119.165c0.092,0.248,0.18,0.507,0.271,0.76
			C140.831,119.672,140.744,119.414,140.651,119.165z"/>
		<path style="fill:#CE593F;" d="M158.396,25.037c0.04-0.124,0.074-0.258,0.114-0.383C158.47,24.779,158.436,24.913,158.396,25.037z
			"/>
		<path style="fill:#CE593F;" d="M159.848,19.268c0.059-0.315,0.121-0.627,0.176-0.952C159.97,18.641,159.908,18.952,159.848,19.268
			z"/>
		<path style="fill:#CE593F;" d="M141.527,121.711c0.097,0.301,0.192,0.606,0.286,0.913
			C141.719,122.317,141.624,122.012,141.527,121.711z"/>
		<path style="fill:#CE593F;" d="M143.805,131.452c0.051,0.333,0.094,0.681,0.141,1.021
			C143.899,132.133,143.856,131.786,143.805,131.452z"/>
		<path style="fill:#CE593F;" d="M143.259,128.329c0.001,0.006,0.002,0.013,0.003,0.02
			C143.261,128.342,143.26,128.335,143.259,128.329z"/>
		<path style="fill:#CE593F;" d="M142.354,124.526c0.078,0.292,0.16,0.579,0.235,0.878
			C142.513,125.105,142.432,124.819,142.354,124.526z"/>
	</g>
	<g>
		<path style="fill:#FDD44B;" d="M167.05,211.803c0-18.972,5.526-28.92,10.403-37.698c4.567-8.222,8.512-15.323,8.512-30.4
			c0-15.075-3.945-22.174-8.512-30.395c-4.876-8.778-10.403-18.727-10.403-37.699c0-18.971,5.526-29.057,10.403-37.834
			c2.32-4.175,4.476-7.993,6.038-12.993h-9.525c-2.037,8-5.379,14.725-8.473,20.295c-4.567,8.221-8.511,15.388-8.511,30.464
			c0,15.076,3.944,22.211,8.511,30.432c4.877,8.778,10.404,18.743,10.404,37.714c0,18.973-5.527,28.931-10.404,37.71
			c-4.567,8.221-8.511,15.325-8.511,30.401c0,15.077,3.944,22.181,8.511,30.402c4.877,8.778,10.404,18.728,10.404,37.701
			c0,18.973-5.527,29.571-10.404,38.349c-3.732,6.719-7.047,12.532-8.134,23.532h10.016c1.237-16,5.893-23.295,10.078-30.831
			c4.567-8.222,8.512-15.647,8.512-30.724c0-15.077-3.945-22.34-8.512-30.562C172.576,240.887,167.05,230.775,167.05,211.803z"/>
		<path style="fill:#FDD44B;" d="M174.228,23.846c0.132-0.576,0.268-1.257,0.425-2.185
			C174.517,22.401,174.382,23.141,174.228,23.846z"/>
		<path style="fill:#FDD44B;" d="M175.572,15.034L175.572,15.034c-0.003,0.034-0.009,0.063-0.012,0.097
			C175.564,15.096,175.567,15.07,175.572,15.034z"/>
		<path style="fill:#FDD44B;" d="M184.952,19.263c0.059-0.313,0.121-0.622,0.174-0.943C185.072,18.641,185.011,18.95,184.952,19.263
			z"/>
		<path style="fill:#FDD44B;" d="M184.277,22.325c0.078-0.301,0.149-0.613,0.222-0.922
			C184.426,21.712,184.355,22.024,184.277,22.325z"/>
		<path style="fill:#FDD44B;" d="M183.497,25.039c0.041-0.128,0.077-0.266,0.117-0.395
			C183.574,24.774,183.538,24.912,183.497,25.039z"/>
	</g>
	<path style="fill:#3F2D20;" d="M244.781,143.704c0-18.971-5.526-28.919-10.403-37.697c-4.567-8.221-8.512-15.321-8.512-30.397
		c0-15.075,3.944-22.174,8.512-30.395c4.876-8.778,10.403-18.726,10.403-37.697c0-4.152-3.365-7.517-7.517-7.517H137.171
		c-4.151,0-7.517,3.365-7.517,7.517c0,15.076-3.944,22.175-8.512,30.395c-4.876,8.778-10.404,18.726-10.404,37.697
		c0,18.972,5.527,28.921,10.404,37.699c4.567,8.221,8.512,15.32,8.512,30.395c0,15.077-3.944,22.178-8.512,30.4
		c-4.876,8.778-10.403,18.726-10.403,37.698c0,18.973,5.527,28.922,10.404,37.7c4.567,8.222,8.512,15.323,8.512,30.4
		c0,15.077-3.944,22.178-8.512,30.4c-4.876,8.778-10.404,18.727-10.404,37.7c0,4.152,3.366,7.517,7.517,7.517h100.093
		c4.151,0,7.517-3.365,7.517-7.517c0-15.077,3.944-22.178,8.512-30.4c4.876-8.778,10.403-18.727,10.403-37.7
		s-5.527-28.923-10.403-37.7c-4.567-8.222-8.512-15.323-8.512-30.4c0-15.076,3.944-22.176,8.512-30.397
		C239.254,172.626,244.781,162.677,244.781,143.704z M221.236,174.105c-4.877,8.778-10.404,18.726-10.404,37.698
		c0,18.973,5.527,28.922,10.404,37.7c4.567,8.222,8.511,15.323,8.511,30.4c0,15.077-3.944,22.178-8.511,30.4
		c-4.189,7.539-8.856,15.943-10.09,30.183h-28.684c1.088-10.187,4.401-16.164,8.134-22.883c4.876-8.778,10.403-18.727,10.403-37.7
		s-5.526-28.923-10.403-37.7c-4.567-8.222-8.511-15.323-8.511-30.4c0-15.076,3.944-22.176,8.511-30.397
		c4.876-8.779,10.403-18.728,10.403-37.701c0-18.971-5.526-28.919-10.403-37.696c-4.567-8.222-8.511-15.322-8.511-30.398
		c0-15.075,3.944-22.174,8.511-30.395c4.185-7.536,8.841-15.951,10.078-30.18h28.7c-1.087,10.189-4.404,16.159-8.137,22.878
		c-4.877,8.778-10.404,18.726-10.404,37.697c0,18.972,5.527,28.921,10.404,37.699c4.567,8.221,8.511,15.32,8.511,30.395
		C229.747,158.782,225.803,165.883,221.236,174.105z M144.688,279.903c0-18.973-5.527-28.923-10.404-37.7
		c-4.567-8.222-8.511-15.323-8.511-30.4c0-15.076,3.944-22.176,8.511-30.397c4.876-8.779,10.404-18.728,10.404-37.701
		c0-18.971-5.527-28.919-10.403-37.697c-4.567-8.221-8.512-15.321-8.512-30.397c0-15.075,3.944-22.174,8.511-30.395
		c4.188-7.539,8.856-15.941,10.09-30.18h16.109c-1.088,10.185-4.401,16.16-8.134,22.878c-4.876,8.778-10.404,18.726-10.404,37.697
		c0,18.972,5.527,28.921,10.404,37.699c4.567,8.221,8.512,15.32,8.512,30.395c0,15.077-3.944,22.178-8.512,30.4
		c-4.876,8.778-10.403,18.726-10.403,37.698c0,18.973,5.527,28.922,10.404,37.7c4.567,8.222,8.512,15.323,8.512,30.4
		c0,15.077-3.944,22.178-8.512,30.4c-4.186,7.536-8.842,15.952-10.079,30.183h-16.124c1.087-10.19,4.404-16.163,8.137-22.883
		C139.161,308.825,144.688,298.876,144.688,279.903z M165.493,317.603c4.876-8.778,10.404-18.727,10.404-37.7
		s-5.527-28.923-10.404-37.7c-4.567-8.222-8.511-15.323-8.511-30.4c0-15.076,3.944-22.176,8.511-30.397
		c4.876-8.779,10.404-18.728,10.404-37.701c0-18.971-5.527-28.919-10.404-37.697c-4.567-8.221-8.511-15.321-8.511-30.397
		c0-15.075,3.944-22.174,8.511-30.395c4.186-7.536,8.841-15.951,10.079-30.18h10.015c-1.088,10.185-4.4,16.16-8.134,22.878
		c-4.876,8.778-10.403,18.726-10.403,37.697c0,18.972,5.526,28.921,10.403,37.699c4.567,8.221,8.511,15.32,8.511,30.395
		c0,15.077-3.944,22.178-8.511,30.4c-4.876,8.778-10.403,18.726-10.403,37.698c0,18.973,5.526,28.922,10.403,37.7
		c4.567,8.222,8.511,15.323,8.511,30.4c0,15.077-3.944,22.178-8.511,30.4c-4.185,7.536-8.841,15.952-10.078,30.183h-10.016
		C158.446,330.299,161.761,324.322,165.493,317.603z"/>
</g>
<g>
</g>
<g>
</g>
<g>
</g>
<g>
</g>
<g>
</g>
<g>
</g>
<g>
</g>
<g>
</g>
<g>
</g>
<g>
</g>
<g>
</g>
<g>
</g>
<g>
</g>
<g>
</g>
<g>
</g>
</svg>
