<?xml version="1.0" encoding="iso-8859-1"?>
<!-- Generator: Adobe Illustrator 18.0.0, SVG Export Plug-In . SVG Version: 6.00 Build 0)  -->
<!DOCTYPE svg PUBLIC "-//W3C//DTD SVG 1.1//EN" "http://www.w3.org/Graphics/SVG/1.1/DTD/svg11.dtd">
<svg version="1.1" id="Capa_1" xmlns="http://www.w3.org/2000/svg" xmlns:xlink="http://www.w3.org/1999/xlink" x="0px" y="0px"
	 viewBox="0 0 265.689 265.689" style="enable-background:new 0 0 265.689 265.689;" xml:space="preserve">
<g>
	<g>
		<path style="fill:#FDD44B;" d="M85.932,27.663c-0.344-1.54-0.639-3.098-0.852-4.683C85.293,24.565,85.587,26.123,85.932,27.663z"
			/>
		<path style="fill:#FDD44B;" d="M155.071,87.428c-20.583,0-38.596-10.986-48.314-27.582c0.071,0.054,0.148,0.194,0.219,0.248
			c-7.472-5.62-13.478-13.398-17.387-22.001c0.127,0.28,0.232,0.517,0.364,0.517h-60.2v203h6.275
			c3.564-18,21.142-35.369,42.226-35.369c21.084,0,38.662,17.369,42.226,35.369h129.273v-67.696
			c-15-3.477-29.075-18.214-29.075-35.815s14.075-32.339,29.075-35.816V38.609h-39.226
			C206.844,68.609,183.378,87.428,155.071,87.428z M65.025,153.764c-15.462,0-28.041-12.58-28.041-28.041
			c0-15.462,12.58-28.041,28.041-28.041c15.462,0,28.041,12.579,28.041,28.041C93.066,141.184,80.487,153.764,65.025,153.764z
			 M169.877,202.678c-19.644,0-35.626-15.983-35.626-35.627s15.982-35.626,35.626-35.626c19.644,0,35.626,15.982,35.626,35.626
			S189.521,202.678,169.877,202.678z"/>
	</g>
	<path style="fill:#3F2D20;" d="M169.877,131.425c-19.644,0-35.626,15.982-35.626,35.626s15.982,35.627,35.626,35.627
		s35.626-15.983,35.626-35.627S189.521,131.425,169.877,131.425z M149.285,167.051c0-11.354,9.237-20.592,20.592-20.592
		s20.592,9.238,20.592,20.592c0,11.355-9.237,20.593-20.592,20.593S149.285,178.406,149.285,167.051z"/>
	<path style="fill:#3F2D20;" d="M65.025,97.681c-15.462,0-28.041,12.579-28.041,28.041s12.579,28.041,28.041,28.041
		c15.462,0,28.041-12.579,28.041-28.041S80.487,97.681,65.025,97.681z M65.025,138.73c-7.172,0-13.007-5.835-13.007-13.007
		c0-7.173,5.836-13.007,13.007-13.007c7.172,0,13.007,5.835,13.007,13.007C78.032,132.895,72.197,138.73,65.025,138.73z"/>
	<path style="fill:#3F2D20;" d="M258.172,116.541c4.151,0,7.517-3.365,7.517-7.517V15.463c0-4.152-3.366-7.517-7.517-7.517h-69.199
		c-4.151,0-7.517,3.365-7.517,7.517c0,22.565-18.359,40.922-40.924,40.922c-22.564,0-40.921-18.357-40.921-40.922
		c0-4.152-3.365-7.517-7.517-7.517H7.517C3.366,7.946,0,11.311,0,15.463v234.763c0,4.152,3.366,7.517,7.517,7.517h35.368
		c4.151,0,7.517-3.365,7.517-7.517c0-15.357,12.494-27.851,27.852-27.851c15.357,0,27.851,12.494,27.851,27.851
		c0,4.152,3.366,7.517,7.517,7.517h144.55c4.151,0,7.517-3.365,7.517-7.517v-83.053c0-4.152-3.366-7.517-7.517-7.517
		c-11.887,0-21.558-9.67-21.558-21.557C236.614,126.211,246.284,116.541,258.172,116.541z M250.655,242.709H120.48
		c-3.564-20.076-21.142-35.369-42.226-35.369c-21.084,0-38.662,15.293-42.226,35.369H15.034V22.98h70.045
		c3.683,27.314,27.146,48.44,55.453,48.44c28.308,0,51.773-21.125,55.455-48.44h54.667v79.303
		c-16.583,3.477-29.075,18.215-29.075,35.816s12.492,32.338,29.075,35.815V242.709z"/>
</g>
<g>
</g>
<g>
</g>
<g>
</g>
<g>
</g>
<g>
</g>
<g>
</g>
<g>
</g>
<g>
</g>
<g>
</g>
<g>
</g>
<g>
</g>
<g>
</g>
<g>
</g>
<g>
</g>
<g>
</g>
</svg>
