<svg height="512pt" viewBox="0 -61 512.00042 512" width="512pt" xmlns="http://www.w3.org/2000/svg"><path d="m236.867188 297.707031c-51.203126-51.46875-59.335938-130.316406-24.285157-190.46875-15.273437 1.46875-31.105469 2.242188-47.332031 2.242188-42.949219 0-83.140625-5.414063-117.511719-14.835938-4.730469-1.296875-8.566406-3.824219-11.417969-7.070312-53.492187 76.503906-28.988281 183.308593 54.226563 228.371093 25.816406 13.980469 47.339844 34.71875 61.855469 60.238282 5.734375 10.089844 20.273437 10.089844 26.011718 0 14.523438-25.535156 36.078126-46.265625 61.90625-60.265625 3.472657-1.878907 6.855469-3.902344 10.160157-6.03125-4.707031-3.753907-9.261719-7.804688-13.613281-12.179688zm0 0" fill="#d3843d"/><path d="m125.613281 315.945312c-78.21875-42.359374-105.769531-140.796874-61.351562-217.199218-5.636719-1.273438-11.160157-2.632813-16.523438-4.105469-4.730469-1.296875-8.566406-3.824219-11.417969-7.066406-53.492187 76.503906-28.988281 183.308593 54.226563 228.371093 25.816406 13.980469 47.34375 34.714844 61.855469 60.238282 5.738281 10.085937 20.277344 10.085937 26.011718 0 1.4375-2.523438 2.960938-4.988282 4.527344-7.414063-14.300781-22.128906-34.0625-40.226562-57.328125-52.824219zm0 0" fill="#c16a33"/><path d="m171.238281 376.183594c6.511719-25.535156 16.179688-46.265625 27.757813-60.265625 8.035156-9.710938 15.121094-22.808594 20.894531-38.417969-35.574219-50.429688-38.035156-117.527344-7.308594-170.261719-34.859375 3.355469-72.929687 3.078125-109.925781-1.726562-17.300781 74.5625-5.289062 168.804687 29.183594 210.433593 11.574218 13.980469 21.226562 34.71875 27.734375 60.238282 2.574219 10.089844 9.09375 10.089844 11.664062 0zm0 0" fill="#c16a33"/><path d="m166.910156 315.945312c-33.726562-40.730468-46.253906-132.671874-29.894531-207.261718-11.46875-.644532-22.964844-1.691406-34.355469-3.171875-17.296875 74.542969-5.300781 168.789062 29.179688 210.433593 11.578125 13.980469 21.226562 34.71875 27.734375 60.238282 2.574219 10.089844 9.09375 10.089844 11.664062 0 3.191407-12.515625 7.144531-23.867188 11.707031-33.847656-4.738281-10.375-10.136718-19.265626-16.035156-26.390626zm0 0" fill="#af5028"/><path d="m281.523438 45.640625c-32.683594-23.867187-74.039063-38.863281-117.683594-38.554687-47.53125.335937-91.15625 17.832031-124.972656 46.5625-14.535157 12.347656-9.523438 36.953124 8.871093 41.996093 34.371094 9.421875 74.5625 14.839844 117.511719 14.839844 16.226562 0 33.058594-.777344 48.335938-2.246094 16.292968-27.96875 34.835937-46.761719 67.9375-62.597656zm0 0" fill="#af5028"/><path d="m83.003906 101.949219c-18.390625-5.042969-23.402344-29.648438-8.871094-41.996094 33.816407-28.730469 77.445313-46.226563 124.976563-46.5625 5.726563-.039063 11.417969.1875 17.054687.664063-16.757812-4.617188-34.347656-7.09375-52.324218-6.96875-47.53125.335937-91.15625 17.835937-124.972656 46.566406-14.535157 12.347656-9.523438 36.949218 8.871093 41.992187 16.207031 4.445313 33.71875 7.984375 52.191407 10.496094-5.777344-1.296875-11.433594-2.6875-16.925782-4.191406zm0 0" fill="#a63f24"/><path d="m236.367188 76.164062c-60.371094 61.226563-60.140626 160.582032.5 221.542969 42.332031 42.558594 102.914062 55.851563 156.640624 39.871094 28.140626-8.371094 58.027344-8.929687 86.335938-1.144531 11.1875 3.074218 21.46875-7.203125 18.394531-18.394532-7.789062-28.328124-7.207031-58.226562 1.160157-86.386718 15.914062-53.589844 2.71875-113.984375-39.585938-156.292969-61.75-61.75-162.03125-61.480469-223.445312.804687zm0 0" fill="#c16a33"/><path d="m270.792969 76.164062c26.480469-26.855468 60.1875-42.167968 94.914062-45.964843-46.164062-5.050781-94.136719 10.265625-129.339843 45.964843-60.371094 61.226563-60.140626 160.582032.5 221.542969 35.132812 35.324219 82.835937 50.460938 128.757812 45.460938-130.777344-14.367188-186.46875-174.066407-94.832031-267.003907zm0 0" fill="#af5028"/><path d="m257.859375 97.355469c-48.78125 49.476562-48.597656 129.800781.40625 179.066406 33.09375 33.265625 81.617187 45.613281 126.640625 32.222656 20.957031-6.230469 42.574219-8.78125 63.949219-7.632812 7.894531.421875 14.386719-6.070313 13.964843-13.964844-1.140624-21.375 1.410157-43.007813 7.644532-63.992187 13.328125-44.871094 1.070312-93.289063-31.992188-126.351563-24.15625-24.15625-56.273437-37.390625-90.433594-37.269531-33.398437.117187-65.59375 13.023437-90.179687 37.921875zm0 0" fill="#ffd782"/><path d="m292.929688 97.355469c19.851562-20.132813 45.308593-32.921875 73.105468-36.726563-5.914062-.808594-11.921875-1.21875-17.996094-1.195312-34.101562.117187-66.140624 13.542968-90.179687 37.921875-48.78125 49.472656-48.597656 129.800781.40625 179.066406 28.5 28.648437 68.449219 41.765625 107.746094 36.304687-103.832031-14.453124-145.894531-141.523437-73.082031-215.371093zm0 0" fill="#fdbd40"/><path d="m348.046875 51.664062c-.164063 0-.328125 0-.492187 0-119.390626.421876-178.90625 145.527344-95.074219 229.804688 25.699219 25.832031 60.175781 39.753906 95.539062 39.753906 39.082031 0 50.128907-15.625 99.976563-12.964844 12.320312.660157 22.53125-9.496093 21.871094-21.863281-1.101563-20.660156 1.367187-41.335937 7.34375-61.453125 25.753906-86.703125-39.316407-173.277344-129.164063-173.277344zm114.753906 169c-6.464843 21.765626-9.136719 44.148438-7.941406 66.53125.179687 3.4375-2.625 6.246094-6.058594 6.054688-52.324219-2.792969-64.597656 12.9375-100.773437 12.9375-31.421875 0-62.0625-12.371094-84.890625-35.320312-46.113281-46.355469-46.285157-121.9375-.382813-168.488282l-.003906.003906c23.695312-23.84375 53.917969-35.578124 84.855469-35.6875.148437-.003906.292969-.003906.4375-.003906 80.273437 0 137.503906 77.402344 114.757812 153.972656zm0 0"/><path d="m276.835938 200.335938c-4.609376-.910157-8.976563 2.605468-8.976563 7.367187 0 4.1875 3.429687 7.523437 7.511719 7.523437 4.054687 0 7.515625-3.3125 7.515625-7.523437 0-3.554687-2.457031-6.613281-6.050781-7.367187zm0 0"/><path d="m322.816406 167.773438c4.816406 0 8.292969-4.425782 7.363282-8.988282-.554688-2.917968-2.941407-5.339844-5.890626-5.890625-4.65625-.960937-8.988281 2.671875-8.988281 7.363281 0 4.179688 3.40625 7.515626 7.515625 7.515626zm0 0"/><path d="m370.261719 120.328125c4.152343 0 7.511719-3.378906 7.511719-7.515625 0-3.441406-2.359376-6.609375-6.039063-7.375-5.355469-1.042969-9.898437 3.734375-8.839844 8.839844.773438 3.683594 3.933594 6.050781 7.367188 6.050781zm0 0"/><path d="m334.457031 211.738281c0-3.378906-2.316406-6.597656-6.050781-7.371093-4.558594-.917969-8.976562 2.570312-8.976562 7.371093 0 4.191407 3.40625 7.515625 7.515624 7.515625 4.070313 0 7.511719-3.304687 7.511719-7.515625zm0 0"/><path d="m381.902344 164.296875c0-4.167969-3.375-7.515625-7.515625-7.515625-3.992188 0-7.511719 3.199219-7.511719 7.515625 0 4.171875 3.417969 7.515625 7.511719 7.515625 4.050781 0 7.515625-3.300781 7.515625-7.515625zm0 0"/><path d="m271.332031 163.644531c4.15625 0 7.515625-3.371093 7.515625-7.515625 0-3.414062-2.34375-6.59375-6.039062-7.363281-4.660156-.914063-8.988282 2.636719-8.988282 7.363281 0 4.191406 3.414063 7.515625 7.511719 7.515625zm0 0"/><path d="m318.789062 116.199219c4.160157 0 7.515626-3.410157 7.515626-7.511719 0-4.78125-4.414063-8.289062-8.988282-7.367188-3.457031.652344-6.042968 3.769532-6.042968 7.367188 0 4.109375 3.316406 7.511719 7.515624 7.511719zm0 0"/><path d="m384.015625 259.976562c-4.515625-.933593-8.988281 2.554688-8.988281 7.363282 0 4.238281 3.453125 7.515625 7.515625 7.515625 4.15625 0 7.515625-3.378907 7.515625-7.515625 0-3.53125-2.445313-6.617188-6.042969-7.363282zm0 0"/><path d="m431.460938 212.53125c-4.519532-.933594-8.976563 2.535156-8.976563 7.367188 0 4.140624 3.347656 7.511718 7.515625 7.511718 4.160156 0 7.503906-3.394531 7.503906-7.511718 0-3.660157-2.648437-6.730469-6.042968-7.367188zm0 0"/><path d="m378.425781 223.382812c4.164063 0 7.515625-3.417968 7.515625-7.515624 0-3.433594-2.359375-6.601563-6.054687-7.375-4.597657-.90625-8.976563 2.585937-8.976563 7.375 0 4.1875 3.417969 7.515624 7.515625 7.515624zm0 0"/><path d="m427.332031 161.050781c-4.464843-.933593-8.976562 2.496094-8.976562 7.363281 0 4.125 3.339843 7.515626 7.515625 7.515626 4.09375 0 7.515625-3.308594 7.515625-7.515626 0-3.679687-2.679688-6.734374-6.054688-7.363281zm0 0"/><path d="m332.445312 255.945312c-4.585937-.945312-8.988281 2.601563-8.988281 7.367188 0 4.144531 3.378907 7.515625 7.515625 7.515625 4.242188 0 7.515625-3.457031 7.515625-7.515625 0-3.660156-2.648437-6.730469-6.042969-7.367188zm0 0"/><path d="m505.316406 176.363281c4.125-.460937 7.097656-4.175781 6.636719-8.300781-9.25-83.03125-79.308594-146.582031-163.90625-146.582031-.195313 0-.402344 0-.601563 0-23.351562.082031-45.933593 4.984375-66.625 14.21875-29.285156-20.402344-63.414062-32.71875-99.007812-35.6757815-4.148438-.3320315-7.769531 2.7343745-8.113281 6.8710935-.34375 4.132813 2.730469 7.765625 6.867187 8.109375 30.257813 2.511719 59.371094 12.328125 84.921875 28.539063-22.722656 13.175781-43.0625 32.351562-57.839843 56.292969-52.585938 4.570312-109.15625.800781-158.378907-12.695313-12.527343-3.429687-15.988281-19.527344-5.996093-28.015625 29.519531-25.078125 65.328124-40.269531 103.5625-43.925781 4.132812-.394531 7.160156-4.0625 6.765624-8.195313-.394531-4.132812-4.0625-7.164062-8.195312-6.765625-41.308594 3.949219-79.992188 20.351563-111.863281 47.429688-11.757813 9.992187-14.398438 26.71875-6.832031 39.78125-17.402344 26.667969-26.6289068 57.410156-26.710938 89.269531-.160156 60.8125 32.988281 116.597656 86.507812 145.582031 24.855469 13.460938 45.222657 33.289063 58.902344 57.34375 8.617188 15.148438 30.457032 15.15625 39.078125 0 22.6875-39.894531 55.464844-55.101562 65.070313-60.878906 28.609375 21.316406 63.171875 32.644531 98.449218 32.644531 15.742188 0 31.628907-2.257812 47.1875-6.882812 27.089844-8.058594 55.515626-8.4375 82.199219-1.105469 16.8125 4.625 32.257813-10.800781 27.632813-27.628906-7.332032-26.664063-6.945313-55.109375 1.117187-82.257813 2.757813-9.277344 4.707031-18.945312 5.800781-28.738281.457032-4.125-2.511718-7.84375-6.636718-8.300781-4.113282-.457032-7.84375 2.507812-8.300782 6.632812-.996093 8.914063-2.769531 17.703125-5.269531 26.128906-8.867187 29.839844-9.28125 61.140626-1.203125 90.519532 1.53125 5.570312-3.578125 10.683594-9.15625 9.152344-29.398437-8.078126-60.683594-7.667969-90.46875 1.191406-48.308594 14.367187-101.070312 3.738281-140.191406-29.667969-106.214844-90.636719-40.890625-263.457031 96.78125-263.945313h.542969c76.867187 0 140.558593 57.738282 148.972656 133.21875.460937 4.125 4.1875 7.097657 8.300781 6.636719zm-294.308594 101.890625c-5.25 13.351563-11.382812 24.316406-18.257812 32.621094-11.554688 13.96875-21.117188 33.863281-27.800781 57.769531-6.683594-23.921875-16.238281-43.804687-27.777344-57.746093-21.839844-26.375-35.367187-77.78125-35.300781-134.152344.027344-21.765625 2.164062-43.460938 6.210937-63.199219 29.402344 3.375 60.566407 4.105469 91.015625 2.042969-24.316406 51.242187-21.105468 113.140625 11.910156 162.664062zm-117.339843 30.828125c-48.652344-26.34375-78.78125-77.050781-78.636719-132.324219.074219-27.859374 7.835938-54.789062 22.527344-78.375 2.453125 1.441407 5.058594 2.519532 7.734375 3.253907 15.132812 4.148437 31.199219 7.464843 47.855469 9.929687-4.15625 20.5625-6.277344 42.4375-6.304688 65.160156-.070312 59.71875 14.777344 114.804688 38.75 143.757813 6.167969 7.449219 11.730469 16.957031 16.515625 28.140625-13.324219-15.972656-29.730469-29.40625-48.441406-39.542969zm94.125 39.546875c12.6875-29.636718 20.117187-26.546875 33.648437-56.460937 5.0625 6.066406 10.277344 11.453125 15.730469 16.402343-18.695313 10.265626-34.875 22.683594-49.378906 40.058594zm0 0"/></svg>