<?xml version="1.0" encoding="iso-8859-1"?>
<!-- Generator: Adobe Illustrator 18.0.0, SVG Export Plug-In . SVG Version: 6.00 Build 0)  -->
<!DOCTYPE svg PUBLIC "-//W3C//DTD SVG 1.1//EN" "http://www.w3.org/Graphics/SVG/1.1/DTD/svg11.dtd">
<svg version="1.1" id="Capa_1" xmlns="http://www.w3.org/2000/svg" xmlns:xlink="http://www.w3.org/1999/xlink" x="0px" y="0px"
	 viewBox="0 0 352.992 352.992" style="enable-background:new 0 0 352.992 352.992;" xml:space="preserve">
<g>
	<path style="fill:#FDD44B;" d="M193.431,307.156c-3.878-0.345-6.852-3.594-6.852-7.488v-51.983h-20.165v51.983
		c0,3.893-2.974,7.143-6.853,7.488c-7.875,0.699-14.044,7.449-14.044,15.367c0,8.51,6.924,15.434,15.435,15.435
		c3.882-0.001,7.594-1.45,10.451-4.081c2.877-2.653,7.307-2.652,10.187-0.001c2.856,2.632,6.568,4.082,10.448,4.082h0.002
		c8.514,0,15.436-6.923,15.436-15.434C207.475,314.605,201.306,307.855,193.431,307.156z"/>
	<g>
		<path style="fill:#EF8829;" d="M162.928,16.095c-26.046,4.192-48.347,20.489-61.518,43.233
			C114.581,36.584,136.883,20.288,162.928,16.095z"/>
		<path style="fill:#EF8829;" d="M152.767,232.652c-8.811-24.816-39.529-61.803-43.572-66.607
			C96.819,150.568,89.655,131.161,88.807,111c0.847,20.161,8.011,39.568,20.388,55.045
			C113.237,170.849,143.956,207.836,152.767,232.652L152.767,232.652z"/>
		<path style="fill:#EF8829;" d="M92.663,79.653c0.854-2.877,1.839-5.693,2.947-8.441C94.502,73.96,93.517,76.776,92.663,79.653z"/>
		<path style="fill:#EF8829;" d="M95.61,71.212c1.109-2.748,2.341-5.429,3.69-8.034C97.952,65.783,96.719,68.464,95.61,71.212z"/>
		<path style="fill:#EF8829;" d="M189.434,15.993c-1.823-0.276-3.663-0.475-5.511-0.631
			C185.771,15.519,187.611,15.716,189.434,15.993z"/>
		<path style="fill:#EF8829;" d="M201.884,18.87c-1.799-0.564-3.623-1.048-5.459-1.489C198.261,17.822,200.086,18.305,201.884,18.87
			z"/>
		<path style="fill:#EF8829;" d="M207.48,20.861c-1.832-0.72-3.682-1.392-5.559-1.981C203.798,19.47,205.648,20.14,207.48,20.861z"
			/>
		<path style="fill:#EF8829;" d="M238.518,41.836c-5.698-5.962-12.052-10.976-18.873-15.018c1.713,1.016,3.403,2.081,5.054,3.221
			c-4.248-1.532-8.621-2.446-13.078-3.279c-6.369-1.53-12.945-2.061-19.638-2.061h-0.517c-48.256,0-87.516,40.974-87.516,91.66
			c0.001,21.597,7.272,42.524,20.474,59.033c3.57,4.242,27.718,38.307,39.437,61.307h36.151c8.813-23,39.752-65.78,43.786-70.576
			c13.204-16.509,20.473-37.528,20.473-59.125C264.27,82.38,255.124,59.213,238.518,41.836z M203.417,75.035
			c-1.402,1.404-3.338,2.205-5.311,2.205c-1.985,0-3.919-0.802-5.323-2.205c-1.394-1.393-2.195-3.328-2.195-5.312
			c0-1.975,0.8-3.919,2.195-5.312c1.403-1.403,3.337-2.205,5.323-2.205c1.973,0,3.909,0.802,5.311,2.205
			c1.404,1.393,2.206,3.337,2.206,5.312C205.623,71.707,204.821,73.642,203.417,75.035z M209.722,45.648
			c-1.404,1.404-3.348,2.205-5.323,2.205c-1.973,0-3.909-0.801-5.311-2.205c-1.404-1.403-2.206-3.338-2.206-5.312
			c0-1.984,0.802-3.919,2.206-5.322c1.402-1.394,3.338-2.195,5.311-2.195c1.985,0,3.919,0.801,5.323,2.195
			c1.394,1.403,2.194,3.338,2.194,5.322C211.916,42.31,211.116,44.245,209.722,45.648z M232.814,68.741
			c-1.402,1.403-3.338,2.205-5.321,2.205c-1.975,0-3.909-0.802-5.313-2.205c-1.404-1.403-2.204-3.338-2.204-5.322
			c0-1.975,0.8-3.909,2.204-5.312c1.403-1.394,3.337-2.205,5.313-2.205c1.983,0,3.919,0.811,5.321,2.205
			c1.394,1.402,2.196,3.337,2.196,5.312C235.01,65.403,234.208,67.338,232.814,68.741z"/>
		<path style="fill:#EF8829;" d="M208.359,21.216c3.659,1.489,7.222,3.231,10.663,5.232
			C215.58,24.448,212.019,22.703,208.359,21.216z"/>
		<path style="fill:#EF8829;" d="M189.581,16.012c1.901,0.292,3.782,0.668,5.651,1.088C193.363,16.68,191.482,16.304,189.581,16.012
			z"/>
		<path style="fill:#EF8829;" d="M182.499,15.252c-1.906-0.129-3.818-0.218-5.745-0.218
			C178.681,15.034,180.594,15.123,182.499,15.252z"/>
	</g>
	<path style="fill:#3F2D20;" d="M204.399,32.819c-1.973,0-3.909,0.801-5.311,2.195c-1.404,1.403-2.206,3.338-2.206,5.322
		c0,1.974,0.802,3.909,2.206,5.312c1.402,1.404,3.338,2.205,5.311,2.205c1.975,0,3.919-0.801,5.323-2.205
		c1.394-1.403,2.194-3.338,2.194-5.312c0-1.984-0.8-3.919-2.194-5.322C208.318,33.62,206.384,32.819,204.399,32.819z"/>
	<path style="fill:#3F2D20;" d="M227.493,55.902c-1.975,0-3.909,0.811-5.313,2.205c-1.404,1.403-2.204,3.337-2.204,5.312
		c0,1.984,0.8,3.919,2.204,5.322c1.404,1.403,3.338,2.205,5.313,2.205c1.983,0,3.919-0.802,5.321-2.205
		c1.394-1.403,2.196-3.338,2.196-5.322c0-1.975-0.802-3.909-2.196-5.312C231.412,56.713,229.476,55.902,227.493,55.902z"/>
	<path style="fill:#3F2D20;" d="M198.106,62.206c-1.985,0-3.919,0.802-5.323,2.205c-1.394,1.393-2.195,3.337-2.195,5.312
		c0,1.984,0.801,3.919,2.195,5.312c1.403,1.403,3.338,2.205,5.323,2.205c1.973,0,3.909-0.802,5.311-2.205
		c1.404-1.393,2.206-3.328,2.206-5.312c0-1.975-0.802-3.919-2.206-5.312C202.015,63.008,200.079,62.206,198.106,62.206z"/>
	<path style="fill:#3F2D20;" d="M249.389,31.45C230.007,11.169,204.211,0,176.755,0h-0.517c-56.546,0-102.55,47.981-102.55,106.958
		c0.001,25.033,8.464,49.38,23.83,68.557c0.038,0.048,0.078,0.096,0.117,0.143c10.445,12.399,38.377,48.442,42.153,66.084
		c0.742,3.467,3.805,5.944,7.351,5.944h4.241v45.891c-12.287,4-20.896,15.445-20.896,28.947c0,16.799,13.668,30.468,30.47,30.469
		c5.526-0.001,10.875-1.487,15.543-4.262c4.669,2.775,10.017,4.261,15.541,4.261h0.004c16.8,0,30.468-13.668,30.468-30.468
		c0-13.501-8.607-24.947-20.895-28.947v-45.891h4.24c3.547,0,6.609-2.477,7.351-5.944c3.772-17.624,31.707-53.679,42.152-66.085
		c0.041-0.046,0.08-0.094,0.117-0.142c15.367-19.177,23.83-43.524,23.83-68.557C279.304,78.453,268.681,51.636,249.389,31.45z
		 M243.798,166.044c-4.035,4.796-34.759,41.788-43.572,66.608h-47.459c-8.811-24.816-39.529-61.803-43.572-66.607
		c-13.202-16.509-20.472-37.489-20.473-59.087c0-50.687,39.26-91.924,87.516-91.924h0.517c23.313,0,45.247,9.519,61.764,26.802
		c16.606,17.376,25.752,40.504,25.752,65.122C264.27,128.555,257.002,149.535,243.798,166.044z M192.039,337.957h-0.002
		c-3.88,0-7.591-1.45-10.448-4.082c-2.88-2.65-7.31-2.652-10.187,0.001c-2.856,2.631-6.569,4.081-10.451,4.081
		c-8.511-0.001-15.435-6.925-15.435-15.435c0-7.918,6.168-14.668,14.044-15.367c3.879-0.345,6.853-3.594,6.853-7.488v-51.983h20.165
		v51.983c0,3.893,2.974,7.143,6.852,7.488c7.875,0.699,14.044,7.449,14.044,15.367C207.475,331.034,200.553,337.957,192.039,337.957
		z"/>
</g>
<g>
</g>
<g>
</g>
<g>
</g>
<g>
</g>
<g>
</g>
<g>
</g>
<g>
</g>
<g>
</g>
<g>
</g>
<g>
</g>
<g>
</g>
<g>
</g>
<g>
</g>
<g>
</g>
<g>
</g>
</svg>
