<?xml version="1.0" encoding="iso-8859-1"?>
<!-- Generator: Adobe Illustrator 19.0.0, SVG Export Plug-In . SVG Version: 6.00 Build 0)  -->
<svg version="1.1" id="Layer_1" xmlns="http://www.w3.org/2000/svg" xmlns:xlink="http://www.w3.org/1999/xlink" x="0px" y="0px"
	 viewBox="0 0 512 512" style="enable-background:new 0 0 512 512;" xml:space="preserve">
<path style="fill:#F5B96E;" d="M255.998,60.658c-86.296,0-166.682,25.26-234.201,68.77c-15.361,9.899-18.928,30.859-7.877,45.413
	l222.748,293.373c9.712,12.792,28.943,12.797,38.655,0.006c43.9-57.819,152.748-201.178,222.757-293.386
	c11.049-14.553,7.481-35.506-7.878-45.404C422.683,85.92,342.295,60.658,255.998,60.658z"/>
<path style="opacity:0.1;enable-background:new    ;" d="M255.998,60.658c-86.296,0-166.682,25.26-234.201,68.77
	c-15.361,9.899-18.928,30.859-7.877,45.413l222.748,293.373c9.712,12.792,28.943,12.797,38.655,0.006
	c43.9-57.819,152.748-201.178,222.757-293.386c11.049-14.553,7.481-35.506-7.878-45.404
	C422.683,85.92,342.295,60.658,255.998,60.658z"/>
<path style="fill:#F9EFD1;" d="M400.329,70.041c-29.404,0-54.746,17.341-66.394,42.347c-11.288-7.113-24.644-11.244-38.971-11.244
	c-5.679,0-11.199,0.668-16.507,1.892c-2.265-38.4-34.111-68.846-73.08-68.846c-28.67,0-53.475,16.487-65.494,40.488
	c-7.989-2.991-16.634-4.637-25.667-4.637c-40.439,0-73.222,32.783-73.222,73.222s32.782,73.222,73.222,73.222
	c28.669,0,53.475-16.486,65.494-40.488c7.989,2.991,16.634,4.637,25.667,4.637c5.679,0,11.199-0.668,16.507-1.892
	c2.265,38.4,34.111,68.846,73.08,68.846c29.404,0,54.746-17.341,66.394-42.346c11.288,7.113,24.644,11.243,38.971,11.243
	c40.439,0,73.222-32.782,73.222-73.222C473.551,102.823,440.768,70.041,400.329,70.041z"/>
<path style="opacity:0.05;enable-background:new    ;" d="M255.999,116.295c-76.184,0-147.092,22.579-206.406,61.404
	c12.323,23.076,36.635,38.785,64.623,38.785c28.67,0,53.475-16.487,65.494-40.488c7.989,2.991,16.634,4.636,25.667,4.636
	c5.679,0,11.199-0.668,16.507-1.891c2.265,38.4,34.111,68.846,73.08,68.846c29.404,0,54.746-17.341,66.395-42.347
	c11.288,7.113,24.643,11.244,38.971,11.244c27.486,0,51.422-15.154,63.944-37.554C404.582,139.352,332.984,116.295,255.999,116.295z
	"/>
<path style="fill:#F5B96E;" d="M255.998,131.523c-82.301,0-158.176,27.472-218.995,73.721l199.662,262.965
	c9.714,12.794,28.948,12.801,38.662,0.007c39.317-51.783,130.719-172.164,199.666-262.973
	C414.174,158.994,338.299,131.523,255.998,131.523z"/>
<g>
	<path style="fill:#E3637B;" d="M186.109,268.841h-22.436c-4.143,0-7.5-3.357-7.5-7.5s3.358-7.5,7.5-7.5h22.436
		c4.143,0,7.5,3.358,7.5,7.5S190.252,268.841,186.109,268.841z"/>
	<path style="fill:#E3637B;" d="M348.324,268.841h-22.436c-4.143,0-7.5-3.357-7.5-7.5s3.358-7.5,7.5-7.5h22.436
		c4.143,0,7.5,3.358,7.5,7.5S352.466,268.841,348.324,268.841z"/>
</g>
<g style="opacity:0.1;">
	<circle cx="199.56" cy="347.209" r="7.244"/>
	<circle cx="269.62" cy="397.169" r="7.244"/>
	<circle cx="308.56" cy="311.009" r="7.244"/>
	<circle cx="402.8" cy="202.189" r="7.244"/>
	<circle cx="226.22" cy="162.269" r="7.244"/>
	<circle cx="99.99" cy="218.869" r="7.244"/>
</g>
<path d="M511.411,148.969c-1.87-10.607-8.119-20.027-17.146-25.843c-6.384-4.114-13.089-8.169-19.945-12.088
	c-12.467-28.514-40.933-48.497-73.991-48.497c-10.332,0-20.385,2.012-29.697,5.718c-34.236-9.206-69.663-14.238-105.402-14.976
	c-14.817-16.362-36.218-26.593-59.854-26.593c-28.566,0-54.47,14.757-69.057,38.925c-7.169-2.042-14.578-3.074-22.104-3.074
	c-32.301,0-60.217,19.078-73.109,46.551c-7.964,4.461-15.82,9.166-23.371,14.033c-9.027,5.817-15.276,15.238-17.146,25.846
	c-1.883,10.684,0.799,21.767,7.359,30.407l23.083,30.401l199.661,262.966c6.063,7.985,15.287,12.564,25.31,12.564
	c10.019,0,19.24-4.576,25.299-12.557l199.667-262.973l23.087-30.408C510.613,170.732,513.294,159.651,511.411,148.969z
	 M351.609,78.975c-8.234,6.232-15.309,14.046-20.704,23.114c-14.066-7.008-30.04-9.803-45.886-7.825
	c-1.501-9.164-4.557-17.784-8.857-25.614C301.644,69.843,326.906,73.305,351.609,78.975z M38.484,194.79l-18.589-24.483
	c-4.101-5.401-5.711-12.054-4.533-18.733c1.164-6.602,4.892-12.228,10.498-15.84c2.851-1.837,5.758-3.643,8.687-5.43
	c-0.684,4.222-1.054,8.547-1.054,12.959c0,16.169,4.9,31.945,13.903,45.242C44.403,190.558,41.427,192.642,38.484,194.79z
	 M269.353,463.681c-3.197,4.212-8.064,6.627-13.352,6.627c-5.291,0-10.161-2.418-13.363-6.634L47.556,206.738
	c60.856-44.33,132.758-67.716,208.442-67.716c75.686,0,147.587,23.385,208.443,67.716L269.353,463.681z M453.839,181.376
	c-59.083-37.612-126.867-57.354-197.841-57.354c-70.267,0-137.403,19.361-196.069,56.246c-7.405-10.86-11.435-23.772-11.435-37.006
	c0-36.239,29.482-65.721,65.722-65.721c7.913,0,15.663,1.399,23.038,4.16c3.594,1.349,7.62-0.235,9.336-3.665
	c11.227-22.419,33.753-36.346,58.788-36.346c34.737,0,63.549,27.14,65.593,61.787c0.131,2.204,1.225,4.239,2.992,5.563
	c1.769,1.324,4.03,1.797,6.18,1.305c4.893-1.128,9.88-1.7,14.823-1.7c12.405,0,24.498,3.488,34.973,10.089
	c1.821,1.148,4.05,1.458,6.116,0.849c2.065-0.607,3.771-2.075,4.681-4.027c10.757-23.092,34.15-38.014,59.595-38.014
	c36.239,0,65.722,29.482,65.722,65.721C466.051,156.981,461.747,170.289,453.839,181.376z M492.107,170.3l-18.594,24.49
	c-2.378-1.735-4.776-3.432-7.186-5.105c9.535-13.54,14.724-29.732,14.724-46.422c0-3.817-0.285-7.567-0.8-11.244
	c1.988,1.233,3.957,2.472,5.889,3.717c5.607,3.612,9.335,9.238,10.498,15.838C497.816,158.251,496.207,164.9,492.107,170.3z
	 M174.891,213.555c-4.143,0-7.5,3.357-7.5,7.5v14.259c0,4.143,3.357,7.5,7.5,7.5s7.5-3.357,7.5-7.5v-14.259
	C182.391,216.912,179.034,213.555,174.891,213.555z M337.105,242.815c4.143,0,7.5-3.357,7.5-7.5v-14.259c0-4.143-3.358-7.5-7.5-7.5
	c-4.143,0-7.5,3.357-7.5,7.5v14.259C329.604,239.457,332.962,242.815,337.105,242.815z M248.498,235.314
	c0,3.087-2.511,5.598-5.598,5.598s-5.599-2.511-5.599-5.598c0-4.143-3.358-7.5-7.5-7.5c-4.143,0-7.5,3.357-7.5,7.5
	c0,11.358,9.241,20.598,20.599,20.598c4.971,0,9.535-1.77,13.098-4.712c3.563,2.942,8.128,4.712,13.099,4.712
	c11.358,0,20.598-9.241,20.598-20.598c0-4.143-3.358-7.5-7.5-7.5c-4.143,0-7.5,3.357-7.5,7.5c0,3.087-2.511,5.598-5.598,5.598
	s-5.599-2.511-5.599-5.598c0-4.143-3.358-7.5-7.5-7.5C251.855,227.814,248.498,231.172,248.498,235.314z"/>
<g>
</g>
<g>
</g>
<g>
</g>
<g>
</g>
<g>
</g>
<g>
</g>
<g>
</g>
<g>
</g>
<g>
</g>
<g>
</g>
<g>
</g>
<g>
</g>
<g>
</g>
<g>
</g>
<g>
</g>
</svg>
