<?xml version="1.0" encoding="iso-8859-1"?>
<!-- Generator: Adobe Illustrator 18.0.0, SVG Export Plug-In . SVG Version: 6.00 Build 0)  -->
<!DOCTYPE svg PUBLIC "-//W3C//DTD SVG 1.1//EN" "http://www.w3.org/Graphics/SVG/1.1/DTD/svg11.dtd">
<svg version="1.1" id="Capa_1" xmlns="http://www.w3.org/2000/svg" xmlns:xlink="http://www.w3.org/1999/xlink" x="0px" y="0px"
	 viewBox="0 0 307.519 307.519" style="enable-background:new 0 0 307.519 307.519;" xml:space="preserve">
<g>
	<path style="fill:#EF8829;" d="M160.052,148.678c0-21.87-17.791-39.663-39.661-39.663c-21.871,0-39.664,17.792-39.664,39.663
		c0,21.869,17.793,39.661,39.664,39.661C142.261,188.34,160.052,170.547,160.052,148.678z M120.392,130.152
		c-10.619,0-19.257,8.639-19.257,19.257c0,4.152-3.366,7.517-7.517,7.517c-4.151,0-7.517-3.365-7.517-7.517
		c0-18.909,15.383-34.291,34.291-34.291c4.151,0,7.517,3.365,7.517,7.517C127.909,126.787,124.543,130.152,120.392,130.152z"/>
	<g>
		<path style="fill:#FDD44B;" d="M48.664,279.592c-0.267-0.284-0.55-0.549-0.806-0.846
			C48.114,279.043,48.397,279.308,48.664,279.592z"/>
		<path style="fill:#FDD44B;" d="M50.2,281.136c0.348,0.317,0.717,0.606,1.079,0.905C50.916,281.743,50.548,281.453,50.2,281.136z"
			/>
		<path style="fill:#FDD44B;" d="M257.266,146.865c1.712-12.176,8.009-25.156,19.251-39.68c11.141-14.393,26.385-42.4,5.519-70.128
			c-7.536-5.447-16.592-8.21-27.066-8.21c-16.101,0-35.162,6.457-53.675,18.182c-29.027,18.384-60.285,19.805-101.277,19.805
			l-12.446-0.01c-44.102,0-55.655,22.497-61.139,44.503c-4.34,17.408,1.458,40.158,17.232,67.619
			c22.834,39.746,10.342,74.92,9.799,76.397c-0.024,0.068-0.05,0.134-0.077,0.2c-4.056,10.141-3.504,20.591,1.446,28.981
			c4.525,2.682,9.803,4.172,15.491,4.172c8.671,0,22.325-3.318,38.13-19.126c23.646-23.652,43.373-32.034,75.384-32.034
			c13.155,0,28.054,1.284,46.917,2.911l0.607-0.62c2.731,0.236,5.408-0.317,7.956-0.317c0.002,0,0.004,0,0.007,0
			c19.851,0,33.753-6.425,39.144-19.307c4.585-10.952,1.897-24.244-6.536-32.804C260.079,175.363,255.144,161.949,257.266,146.865z
			 M120.392,203.374c-30.161,0-54.699-24.537-54.699-54.696c0-30.16,24.537-54.697,54.699-54.697
			c30.158,0,54.695,24.537,54.695,54.697C175.087,178.838,150.55,203.374,120.392,203.374z"/>
		<path style="fill:#FDD44B;" d="M54.037,284.049c-0.423-0.269-0.843-0.541-1.251-0.832
			C53.194,283.509,53.614,283.779,54.037,284.049z"/>
	</g>
	<path style="fill:#3F2D20;" d="M120.392,93.981c-30.161,0-54.698,24.537-54.698,54.697c0,30.159,24.537,54.696,54.698,54.696
		c30.158,0,54.695-24.536,54.695-54.696C175.087,118.519,150.55,93.981,120.392,93.981z M80.728,148.678
		c0-21.87,17.793-39.663,39.664-39.663c21.869,0,39.661,17.792,39.661,39.663c0,21.869-17.791,39.661-39.661,39.661
		C98.521,188.34,80.728,170.547,80.728,148.678z"/>
	<path style="fill:#3F2D20;" d="M120.392,115.118c-18.909,0-34.291,15.382-34.291,34.291c0,4.152,3.366,7.517,7.517,7.517
		c4.152,0,7.517-3.365,7.517-7.517c0-10.618,8.638-19.257,19.257-19.257c4.151,0,7.517-3.365,7.517-7.517
		C127.909,118.483,124.543,115.118,120.392,115.118z"/>
	<path style="fill:#3F2D20;" d="M288.405,116.387c11.338-14.646,34.426-52.777,4.048-90.45
		C280.771,11.448,264.343,3.79,244.947,3.79c-18.912,0-40.831,7.286-61.719,20.515c-25.667,16.255-53.579,17.471-93.234,17.471
		l-12.446-0.01c-22.824,0-40.183,5.273-53.069,16.122C13.627,67.026,6.215,80.039,1.821,97.667
		c-5.312,21.305,1.008,47.798,18.784,78.744c18.941,32.969,9.428,61.713,8.747,63.657c-6.13,15.441-4.684,31.62,3.975,44.411
		c8.283,12.234,21.767,19.25,36.996,19.25c11.513,0,29.318-4.082,48.762-23.531c20.911-20.916,36.644-27.629,64.751-27.629
		c12.509,0,27.123,1.26,45.627,2.855l0.606,0.053c3.159,0.272,6.269,0.41,9.245,0.41c0.004,0,0.008,0,0.01,0
		c25.921-0.002,45.244-10.648,53.011-29.208c6.969-16.646,3.072-36.537-9.693-49.496
		C266.65,160.948,268.428,142.197,288.405,116.387z M278.468,220.874c-5.392,12.882-19.294,19.977-39.145,19.979
		c-0.003,0-0.005,0-0.007,0c-2.548,0-5.225-0.119-7.956-0.355l-0.607-0.052c-18.863-1.627-33.762-2.911-46.917-2.911
		c-32.01,0-51.737,8.382-75.384,32.034c-15.805,15.809-29.458,19.126-38.13,19.126c-10.159,0-19.106-4.608-24.547-12.644
		c-5.843-8.63-6.722-19.758-2.413-30.531c0.026-0.066,0.052-0.132,0.077-0.2c0.543-1.478,13.035-36.652-9.799-76.397
		c-15.775-27.461-21.572-50.211-17.232-67.619c5.484-22.006,17.037-44.503,61.139-44.503l12.446,0.01
		c40.992,0,72.25-1.421,101.277-19.805c18.513-11.725,37.574-18.182,53.675-18.182c14.902,0,26.948,5.568,35.803,16.55
		c22.797,28.271,7.133,57.126-4.233,71.81c-11.242,14.524-17.539,27.504-19.251,39.68c-2.122,15.085,2.813,28.835,14.666,40.869
		C280.365,196.293,283.053,209.922,278.468,220.874z"/>
</g>
<g>
</g>
<g>
</g>
<g>
</g>
<g>
</g>
<g>
</g>
<g>
</g>
<g>
</g>
<g>
</g>
<g>
</g>
<g>
</g>
<g>
</g>
<g>
</g>
<g>
</g>
<g>
</g>
<g>
</g>
</svg>
