<svg height="512pt" viewBox="0 -69 512.00041 512" width="512pt" xmlns="http://www.w3.org/2000/svg"><path d="m431.496094 366.109375h-351.160156c-32.847657 0-62.105469-20.761719-72.957032-51.761719h497.074219c-10.851563 31-40.113281 51.761719-72.957031 51.761719zm0 0" fill="#ffdb57"/><path d="m450.101562 314.347656c-10.847656 31-40.109374 51.761719-72.957031 51.761719h54.351563c32.84375 0 62.105468-20.761719 72.957031-51.761719zm0 0" fill="#f6c134"/><path d="m461.609375 137.644531c-25.714844-79.773437-67.628906-137.6523435-93.617187-129.277343-25.992188 8.378906-26.214844 79.839843-.5 159.617187 25.714843 79.773437 67.628906 137.65625 93.621093 129.277344 25.988281-8.378907 26.210938-79.839844.496094-159.617188zm0 0" fill="#ff9f34"/><path d="m461.101562 270.074219c-.558593.183593-1.128906.320312-1.703124.441406h.003906c-4.4375 1.117187-17.316406 4.238281-35.378906 7.476563 13.542968 15.242187 26.605468 22.632812 37.078124 19.257812 15.117188-4.871094 21.515626-31.09375 19.160157-67.878906-1.71875 22.167968-8.109375 37.140625-19.160157 40.703125zm0 0" fill="#fb8f2d"/><path d="m428.945312 148.175781c-10.074218-31.25-24.683593-54.503906-32.632812-51.941406s-6.230469 29.972656 3.84375 61.222656 24.683594 54.503907 32.632812 51.941407c7.949219-2.5625 6.230469-29.972657-3.84375-61.222657zm0 0" fill="#f2433b"/><path d="m428.933594 148.167969c-2.300782-7.140625-4.84375-13.859375-7.484375-19.953125 5.78125 23.976562 5.78125 42.835937-.75 44.941406-6.128907 1.976562-16.226563-11.417969-25.144531-31.988281 1.257812 5.226562 2.789062 10.6875 4.589843 16.28125 10.074219 31.246093 24.683594 54.5 32.632813 51.9375 7.953125-2.5625 6.230468-29.96875-3.84375-61.21875zm0 0" fill="#d83636"/><path d="m367.484375 167.976562c-25.164063-78.058593-25.488281-148.144531-1.140625-158.972656-21.128906 8.347656-239.75 98.140625-199.308594 223.585938 40.433594 125.449218 270.339844 70.660156 292.367188 65.097656-26.089844 5.429688-66.757813-51.652344-91.917969-129.710938zm0 0" fill="#b5651e"/><path d="m424.023438 277.992188c-71.597657 12.84375-224.699219 27.597656-256.992188-72.574219-1.886719-5.859375-3.210938-11.640625-4.015625-17.339844-2 14.246094-.949219 29.109375 4.015625 44.511719 40.4375 125.449218 270.339844 70.660156 292.367188 65.097656-10.167969 2.117188-22.554688-5.269531-35.375-19.695312zm0 0" fill="#914f16"/><path d="m177.476562 255.242188c-4.234374-6.804688-7.761718-14.328126-10.445312-22.652344-2.683594-8.324219-4.214844-16.488282-4.75-24.488282l-68.085938 21.949219c-5.832031-14.304687-21.792968-21.914062-36.734374-17.097656-15.671876 5.050781-24.277344 21.851563-19.226563 37.519531 2.753906 8.550782 9.007813 14.988282 16.667969 18.261719-4.304688 7.128906-5.621094 16.011719-2.867188 24.558594 5.054688 15.671875 21.851563 24.28125 37.519532 19.226562 14.945312-4.816406 23.457031-20.3125 19.835937-35.328125zm0 0" fill="#e0e0e2"/><path d="m80.273438 214.84375c-.089844-.046875-.183594-.089844-.277344-.136719.035156.082031.074218.164063.105468.246094zm0 0" fill="#c7c6cc"/><path d="m169.269531 238.851562-73.96875 23.242188c3.621094 15.015625-4.890625 30.515625-19.835937 35.332031-7.753906 2.5-15.789063 1.648438-22.539063-1.746093 5.917969 14.140624 21.777344 21.632812 36.632813 16.84375 14.941406-4.816407 23.453125-20.316407 19.832031-35.332032l68.085937-21.949218c-3.144531-5.054688-5.898437-10.507813-8.207031-16.390626zm0 0" fill="#c7c6cc"/><path d="m510.609375 309.976562c-1.417969-1.992187-3.710937-3.179687-6.15625-3.179687h-50.628906c3.179687-.734375 6.480469-1.359375 9.59375-2.363281 11.269531-3.632813 24.734375-17.023438 24.871093-60.191406.09375-30.921876-6.832031-69.601563-19.507812-108.917969-12.671875-39.320313-29.640625-74.765625-47.773438-99.808594-25.320312-34.960937-44.070312-37.96875-55.34375-34.335937-.804687.257812-1.617187.574218-2.4375.9375-8.902343 3.535156-51.320312 20.953124-95.136718 48.757812-3.203125 2.03125-4.40625 6.273438-2.742188 9.679688 1.953125 3.988281 7.074219 5.445312 10.832032 3.066406 25.773437-16.355469 51.035156-29.015625 68.914062-37.234375-2.601562 8.640625-4.253906 20.023437-4.300781 34.988281-.09375 30.917969 6.832031 69.601562 19.503906 108.917969 3.488281 10.816406 7.351563 21.480469 11.480469 31.695312 1.566406 3.867188 5.964844 5.730469 9.828125 4.171875 3.867187-1.566406 5.730469-5.964844 4.167969-9.828125-3.996094-9.882812-7.730469-20.199219-11.105469-30.671875-27.414063-85.039062-21.023438-144.742187-4.371094-150.109375 16.644531-5.378906 56.703125 39.363281 84.117187 124.402344 27.414063 85.042969 21.019532 144.746094 4.371094 150.113281-11.929687 3.84375-36.660156-17.804687-60.863281-66.617187-1.855469-3.734375-6.382813-5.261719-10.117187-3.410157-3.734376 1.851563-5.261719 6.382813-3.410157 10.117188 15.582031 31.425781 32.128907 53.957031 47.734375 65.828125-24.511718 4.800781-62.652344 10.691406-102.683594 10.8125-3.058593 0-6.117187-.015625-9.175781-.074219-36.382812-.71875-66.828125-6.484375-90.492187-17.136718-28.285156-12.734376-46.980469-32.6875-55.5625-59.308594-8.757813-27.179688-4.90625-54.863282 11.457031-82.285156 13.609375-22.804688 35.804687-45.574219 65.964844-67.667969 3.363281-2.460938 4.09375-7.1875 1.628906-10.546875-2.464844-3.363282-7.1875-4.09375-10.550781-1.628906-31.800782 23.292968-55.355469 47.558593-70.007813 72.109374-12.328125 20.660157-18.402343 41.550782-18.195312 62.417969l-56.617188 18.253907c-9.023437-13.800782-26.554687-20.378907-42.75-15.160157-19.609375 6.324219-30.417969 27.417969-24.097656 47.023438 2.511719 7.789062 7.488281 14.464843 14.078125 19.09375-2.644531 7.613281-2.785156 15.933593-.273438 23.726562 1.320313 4.09375 3.296876 7.859375 5.828126 11.183594h-43.300782c-5.832031.894531-8.207031 4.242187-7.125 10.042969 11.894532 33.984375 44.078125 56.820312 80.082032 56.820312h42.722656c4.167968 0 7.550781-3.378906 7.550781-7.550781 0-4.167969-3.382813-7.546875-7.550781-7.546875h-42.722656c-25.894532 0-49.382813-14.367188-61.402344-36.667969h473.964844c-12.023438 22.300781-35.511719 36.667969-61.402344 36.667969h-278.242188c-4.167968 0-7.550781 3.378906-7.550781 7.546875 0 4.171875 3.382813 7.550781 7.550781 7.550781h278.242188c36.003906 0 68.1875-22.835937 80.082031-56.820312.804687-2.308594.445313-4.867188-.96875-6.863282zm-450.832031-89.835937c11.015625-3.554687 23.0625 2.054687 27.425781 12.761719 1.492187 3.65625 5.546875 5.546875 9.308594 4.335937l59.3125-19.121093c.890625 5.605468 2.226562 11.203124 4.023437 16.789062 1.828125 5.671875 4.015625 10.988281 6.523438 15.984375l-59.296875 19.117187c-3.757813 1.210938-5.949219 5.113282-5.023438 8.953126 2.710938 11.238281-3.796875 22.828124-14.8125 26.375-5.65625 1.828124-11.6875 1.335937-16.980469-1.375-5.292968-2.710938-9.210937-7.320313-11.039062-12.984376-1.972656-6.125-1.191406-12.808593 2.144531-18.339843 1.128907-1.871094 1.390625-4.136719.722657-6.214844-.671876-2.082031-2.210938-3.765625-4.21875-4.625-5.933594-2.539063-10.472657-7.511719-12.449219-13.640625-3.765625-11.679688 2.675781-24.25 14.359375-28.015625zm50.273437 86.65625c5.230469-6.875 8.066407-15.488281 7.671875-24.359375l56.582032-18.238281c14.089843 20.0625 34.269531 33.664062 57.511718 42.597656zm0 0"/><path d="m431.507812 217.144531c1.1875 0 2.382813-.183593 3.589844-.570312 20.535156-6.621094 4.453125-60.074219 1.023438-70.722657-3.433594-10.648437-21.601563-63.433593-42.132813-56.808593-11.550781 3.722656-10.425781 21.625-10.054687 27.511719.765625 12.171874 3.96875 27.515624 9.027344 43.210937 3.230468 10.019531 19.515624 57.378906 38.546874 57.378906zm-32.296874-111.894531c5.019531 5.011719 14.441406 20.109375 22.539062 45.234375 8.097656 25.121094 9.269531 42.882813 8.121094 49.878906-5.019532-5.007812-14.441406-20.109375-22.542969-45.230469-8.09375-25.125-9.265625-42.886718-8.117187-49.882812zm0 0"/></svg>