<svg height="480pt" viewBox="-16 0 480 480" width="480pt" xmlns="http://www.w3.org/2000/svg"><path d="m56 136h336v304c0 17.671875-14.328125 32-32 32h-272c-17.675781 0-32-14.328125-32-32zm0 0" fill="#f8cf26"/><path d="m80 8h288c8.835938 0 16 7.164062 16 16v32c0 8.835938-7.164062 16-16 16h-288c-8.835938 0-16-7.164062-16-16v-32c0-8.835938 7.164062-16 16-16zm0 0" fill="#82a53c"/><path d="m368 72h-288l-72 40 23.863281 35.792969c5.929688 8.890625 15.535157 14.65625 26.171875 15.707031 10.632813 1.050781 21.183594-2.71875 28.738282-10.277344 13.933593-13.925781 36.515624-13.925781 50.449218 0l5.550782 5.554688c13.933593 13.925781 36.515624 13.925781 50.449218 0l5.550782-5.554688c13.933593-13.925781 36.515624-13.925781 50.449218 0l5.550782 5.554688c13.933593 13.925781 36.515624 13.925781 50.449218 0l5.550782-5.554688c13.933593-13.925781 36.515624-13.925781 50.449218 0 7.558594 7.558594 18.105469 11.328125 28.742188 10.277344 10.636718-1.050781 20.238281-6.816406 26.171875-15.707031l23.863281-35.792969zm0 0" fill="#9fbc2e"/><path d="m104 184h240v240h-240zm0 0" fill="#f29200"/><path d="m160 216h18.496094c25.128906 0 45.503906 20.371094 45.503906 45.503906v18.496094h-18.503906c-25.128906 0-45.496094-20.371094-45.496094-45.496094zm0 0" fill="#67923d"/><path d="m288 216v18.503906c-.003906 25.125-20.371094 45.492188-45.496094 45.496094h-18.503906v-18.503906c.003906-25.125 20.371094-45.492188 45.496094-45.496094zm0 0" fill="#82a53c"/><path d="m256 360c0 17.671875-14.328125 32-32 32-17.675781 0-32-14.328125-32-32s14.324219-32 32-32c17.671875 0 32 14.328125 32 32zm0 0" fill="#821e70"/><path d="m216 328c0 17.671875-14.328125 32-32 32-17.675781 0-32-14.328125-32-32s14.324219-32 32-32c17.671875 0 32 14.328125 32 32zm0 0" fill="#ab3d63"/><path d="m296 328c0 17.671875-14.328125 32-32 32-17.675781 0-32-14.328125-32-32s14.324219-32 32-32c17.671875 0 32 14.328125 32 32zm0 0" fill="#ab3d63"/><path d="m256 296c0 17.671875-14.328125 32-32 32-17.675781 0-32-14.328125-32-32s14.324219-32 32-32c17.671875 0 32 14.328125 32 32zm0 0" fill="#821e70"/><path d="m200 280c0 17.671875-14.328125 32-32 32-17.675781 0-32-14.328125-32-32s14.324219-32 32-32c17.671875 0 32 14.328125 32 32zm0 0" fill="#88206e"/><path d="m312 280c0 17.671875-14.328125 32-32 32-17.675781 0-32-14.328125-32-32s14.324219-32 32-32c17.671875 0 32 14.328125 32 32zm0 0" fill="#ab3d63"/><path d="m88 480h272c22.078125-.027344 39.972656-17.917969 40-40v-270.480469c9.332031-3.03125 17.363281-9.125 22.800781-17.296875l23.855469-35.78125c1.238281-1.859375 1.644531-4.152344 1.117188-6.324218-.527344-2.171876-1.941407-4.023438-3.894532-5.109376l-58.527344-32.519531c4.257813-4.433593 6.640626-10.339843 6.648438-16.488281v-32c0-13.253906-10.746094-24-24-24h-288c-13.257812 0-24 10.746094-24 24v32c.007812 6.148438 2.386719 12.054688 6.648438 16.488281l-58.53125 32.519531c-1.953126 1.085938-3.363282 2.9375-3.890626 5.109376-.527343 2.171874-.121093 4.464843 1.117188 6.324218l23.855469 35.78125c5.433593 8.171875 13.46875 14.265625 22.800781 17.296875v270.480469c.023438 22.082031 17.917969 39.972656 40 40zm272-16h-272c-13.257812 0-24-10.746094-24-24v-268.464844c10.710938-.578125 20.832031-5.085937 28.429688-12.65625 10.816406-10.789062 28.324218-10.789062 39.136718 0l5.550782 5.554688c5.816406 5.785156 13.160156 9.796875 21.167968 11.566406h-54.285156c-4.417969 0-8 3.582031-8 8v240c0 4.417969 3.582031 8 8 8h240c4.417969 0 8-3.582031 8-8v-240c0-4.417969-3.582031-8-8-8h-54.289062c8.011718-1.769531 15.351562-5.78125 21.167968-11.566406l5.550782-5.554688c10.816406-10.789062 28.324218-10.789062 39.136718 0 7.597656 7.578125 17.71875 12.085938 28.433594 12.664063v268.457031c0 13.253906-10.746094 24-24 24zm-182.289062-288c8.011718-1.769531 15.351562-5.78125 21.167968-11.566406l5.550782-5.554688c10.953124-10.445312 28.183593-10.445312 39.136718 0l5.550782 5.554688c5.816406 5.785156 13.160156 9.796875 21.167968 11.566406zm158.289062 16v224h-224v-224zm-264-168c0-4.417969 3.582031-8 8-8h288c4.417969 0 8 3.582031 8 8v32c0 4.417969-3.582031 8-8 8h-288c-4.417969 0-8-3.582031-8-8zm-33.488281 119.351562-19.039063-28.566406 62.597656-34.785156h113.28125l-18.703124 43.632812 14.703124 6.296876 21.398438-49.929688h22.496094l21.402344 49.929688 14.703124-6.296876-18.703124-43.632812h113.277343l62.601563 34.785156-19.039063 28.566406c-4.429687 6.695313-11.566406 11.117188-19.53125 12.109376-7.964843.988281-15.96875-1.550782-21.902343-6.957032l.289062-.144531-25.226562-49.222656-14.238282 7.296875 14.921875 29.109375c-14.082031-2.589844-28.539062 1.894531-38.683593 12l-5.550782 5.554687c-10.8125 10.789063-28.320312 10.789063-39.136718 0l-5.550782-5.554687c-17.066406-17.023438-44.691406-17.023438-61.761718 0l-5.550782 5.554687c-10.8125 10.789063-28.320312 10.789063-39.136718 0l-5.550782-5.554687c-9.777344-9.722657-23.582031-14.234375-37.214844-12.167969l21.253907-36.597656-13.839844-8-33.230469 57.222656.429688.246094c-5.914063 5.539062-13.96875 8.191406-22.015625 7.25-8.050781-.945313-15.273438-5.382813-19.75-12.136719zm0 0"/><path d="m146.726562 313.742188c-4.800781 12.28125-3.203124 26.140624 4.261719 37.003906 7.464844 10.867187 19.828125 17.328125 33.011719 17.253906.269531 0 .527344-.070312.800781-.078125 3.785157 18.640625 20.175781 32.039063 39.199219 32.039063s35.414062-13.398438 39.199219-32.039063c.273437 0 .527343.078125.800781.078125 13.183594.078125 25.550781-6.382812 33.015625-17.25s9.054687-24.730469 4.246094-37.007812c12.675781-7.917969 19.851562-22.265626 18.59375-37.15625-1.257813-14.890626-10.738281-27.828126-24.5625-33.515626.464843-2.832031.699219-5.695312.707031-8.566406v-18.503906c0-4.417969-3.582031-8-8-8h-18.503906c-18.5625.023438-35.785156 9.675781-45.496094 25.496094-9.714844-15.820313-26.941406-25.472656-45.503906-25.496094h-18.496094c-4.417969 0-8 3.582031-8 8v18.503906c0 2.871094.234375 5.734375.695312 8.566406-13.816406 5.691407-23.292968 18.625-24.550781 33.515626-1.257812 14.890624 5.914063 29.234374 18.582031 37.15625zm13.273438 14.257812c.015625-2.957031.582031-5.886719 1.671875-8.640625 9.273437 1.753906 18.871094-.101563 26.824219-5.191406 4.164062 7.988281 10.875 14.355469 19.070312 18.097656-2.324218 12.101563-13.4375 20.476563-25.710937 19.375-12.277344-1.097656-21.722657-11.316406-21.855469-23.640625zm64-56c5.996094.03125 11.765625 2.316406 16.160156 6.398438 0 .53125-.160156 1.027343-.160156 1.601562-.003906 8.050781 2.441406 15.914062 7.007812 22.542969-2.894531 10.316406-12.296874 17.441406-23.007812 17.441406-10.714844 0-20.117188-7.125-23.007812-17.441406 4.5625-6.632813 7.007812-14.492188 7.007812-22.542969 0-.535156-.136719-1.03125-.160156-1.601562 4.390625-4.082032 10.160156-6.367188 16.160156-6.398438zm0 112c-11.554688-.019531-21.457031-8.269531-23.5625-19.632812 11.707031-5.285157 20.171875-15.859376 22.761719-28.4375.273437 0 .527343.070312.800781.070312.269531 0 .574219-.070312.871094-.078125 2.488281 12.613281 10.941406 23.238281 22.679687 28.492187-2.121093 11.34375-12.015625 19.566407-23.550781 19.585938zm64-56c.03125 12.425781-9.441406 22.816406-21.820312 23.921875-12.378907 1.105469-23.546876-7.4375-25.71875-19.675781 8.183593-3.738282 14.886718-10.101563 19.042968-18.078125 7.949219 5.089843 17.546875 6.945312 26.824219 5.191406 1.085937 2.753906 1.652344 5.683594 1.671875 8.640625zm16-48c0 13.253906-10.746094 24-24 24-13.257812 0-24-10.746094-24-24s10.742188-24 24-24c13.253906 0 24 10.746094 24 24zm-34.503906-56h10.503906v10.503906c-.007812 1.855469-.152344 3.703125-.433594 5.535156-14.765625.203126-28.210937 8.546876-34.945312 21.6875-3.761719-2.257812-7.867188-3.878906-12.160156-4.796874 2.269531-18.75 18.148437-32.867188 37.035156-32.929688zm-101.496094 0h10.496094c18.878906.054688 34.761718 14.167969 37.039062 32.910156-4.289062.921875-8.398437 2.542969-12.160156 4.800782-6.734375-13.140626-20.179688-21.484376-34.945312-21.6875-.277344-1.828126-.421876-3.671876-.429688-5.519532zm0 32c13.253906 0 24 10.746094 24 24s-10.746094 24-24 24c-13.257812 0-24-10.746094-24-24s10.742188-24 24-24zm0 0"/></svg>