<?xml version="1.0" encoding="iso-8859-1"?>
<!-- Generator: Adobe Illustrator 18.0.0, SVG Export Plug-In . SVG Version: 6.00 Build 0)  -->
<!DOCTYPE svg PUBLIC "-//W3C//DTD SVG 1.1//EN" "http://www.w3.org/Graphics/SVG/1.1/DTD/svg11.dtd">
<svg version="1.1" id="Capa_1" xmlns="http://www.w3.org/2000/svg" xmlns:xlink="http://www.w3.org/1999/xlink" x="0px" y="0px"
	 viewBox="0 0 415.745 415.745" style="enable-background:new 0 0 415.745 415.745;" xml:space="preserve">
<g>
	<g>
		<path style="fill:#EF8829;" d="M400.705,194.289c0.022-0.31,0.026-0.619,0.017-0.928
			C400.731,193.67,400.727,193.98,400.705,194.289z"/>
		<path style="fill:#EF8829;" d="M400.536,191.813c0.094,0.396,0.144,0.799,0.173,1.204
			C400.68,192.612,400.63,192.209,400.536,191.813z"/>
		<path style="fill:#EF8829;" d="M382.32,210.699c-0.232-0.225-0.469-0.456-0.695-0.674
			C381.849,210.241,382.09,210.476,382.32,210.699z"/>
		<path style="fill:#EF8829;" d="M400.681,194.598c-0.086,0.842-0.268,1.679-0.518,2.483
			C400.414,196.276,400.596,195.441,400.681,194.598z"/>
		<path style="fill:#EF8829;" d="M396.792,203.507c0,0,2.273-2.898,3.369-6.418c-5.707,6.056-11.509,11.734-15.68,15.714
			c-0.117-0.115-0.222-0.216-0.339-0.33c4.522,4.432,9.871,9.849,14.845,15.345c0.699-1.126,1.28-2.43,1.549-3.884
			c0.637-3.445-0.614-7.365-3.719-11.65C394.873,209.599,394.966,206.065,396.792,203.507z"/>
	</g>
	<g>
		<path style="fill:#CE593F;" d="M25.557,258.674c-0.873-0.663-1.711-1.365-2.483-2.137
			C23.847,257.309,24.685,258.01,25.557,258.674z"/>
		<path style="fill:#CE593F;" d="M124.472,164.997c-4.517-2.428-9.981-3.697-16.153-3.697c-18.03,0-38.971,10.178-56.018,27.226
			c-23.529,23.529-33.041,54.523-23.466,72.248c4.541,2.471,10.03,3.783,16.259,3.783c18.027,0,38.968-10.176,56.015-27.223
			C124.689,213.753,134.151,182.703,124.472,164.997z M51.653,242.856c-1.402,1.394-3.338,2.195-5.321,2.195
			c-1.975,0-3.919-0.802-5.313-2.195c-1.404-1.403-2.204-3.337-2.204-5.322c0-1.974,0.8-3.909,2.204-5.312
			c1.394-1.404,3.337-2.205,5.313-2.205c1.983,0,3.919,0.802,5.321,2.205c1.394,1.403,2.196,3.338,2.196,5.312
			C53.849,239.519,53.047,241.453,51.653,242.856z M62.038,202.534c-1.403,1.404-3.338,2.205-5.313,2.205
			c-1.985,0-3.92-0.801-5.323-2.205c-1.392-1.403-2.195-3.338-2.195-5.312c0-1.985,0.803-3.919,2.195-5.323
			c1.403-1.393,3.338-2.195,5.323-2.195c1.975,0,3.909,0.802,5.313,2.195c1.402,1.403,2.204,3.338,2.204,5.323
			C64.242,199.197,63.44,201.131,62.038,202.534z M91.985,223.933c-1.403,1.403-3.347,2.205-5.321,2.205
			c-1.975,0-3.909-0.802-5.313-2.205c-1.404-1.403-2.204-3.338-2.204-5.322c0-1.974,0.8-3.909,2.204-5.312
			c1.403-1.394,3.338-2.205,5.313-2.205c1.973,0,3.917,0.812,5.321,2.205c1.394,1.403,2.196,3.338,2.196,5.312
			C94.181,220.595,93.379,222.53,91.985,223.933z M102.37,183.611c-1.404,1.403-3.338,2.205-5.313,2.205s-3.919-0.803-5.313-2.205
			c-1.401-1.394-2.204-3.338-2.204-5.312c0-1.985,0.803-3.919,2.204-5.313c1.394-1.403,3.328-2.204,5.313-2.204
			c1.975,0,3.919,0.802,5.313,2.204c1.401,1.394,2.204,3.328,2.204,5.313C104.574,180.274,103.771,182.218,102.37,183.611z"/>
		<path style="fill:#CE593F;" d="M122.781,162.233c0.349,0.485,0.646,1.008,0.96,1.518
			C123.425,163.242,123.132,162.717,122.781,162.233z"/>
		<path style="fill:#CE593F;" d="M28.411,260.539c-0.728-0.413-1.427-0.86-2.102-1.335C26.983,259.68,27.683,260.126,28.411,260.539
			z"/>
	</g>
	<g>
		<path style="fill:#EF8829;" d="M136.672,155.93c-0.068-0.11-0.128-0.226-0.197-0.335
			C136.543,155.705,136.604,155.82,136.672,155.93z"/>
		<path style="fill:#EF8829;" d="M327.043,171.614H141.995c0,0,0-0.385,0-0.387c3,7.499,1.416,15.83-0.506,24.703
			c-3.929,18.14-14.458,37.148-29.872,52.563c-6.413,6.413-13.241,12.121-20.45,17.121h235.876c16.3,0,30.342-20.857,33.261-46.999
			C357.384,192.472,343.343,171.614,327.043,171.614z"/>
		<path style="fill:#EF8829;" d="M135.176,153.691c-0.084-0.116-0.158-0.239-0.243-0.355
			C135.018,153.452,135.092,153.575,135.176,153.691z"/>
		<path style="fill:#EF8829;" d="M139.145,160.532c-0.015-0.032-0.027-0.066-0.042-0.098
			C139.118,160.467,139.131,160.5,139.145,160.532z"/>
		<path style="fill:#EF8829;" d="M137.97,158.171c-0.036-0.068-0.067-0.139-0.104-0.207
			C137.903,158.032,137.934,158.103,137.97,158.171z"/>
		<path style="fill:#EF8829;" d="M360.303,217.895c0.18-1.612,0.321-3.243,0.414-4.894
			C360.621,214.651,360.483,216.283,360.303,217.895z"/>
		<path style="fill:#EF8829;" d="M360.726,212.814c0.089-1.632,0.143-3.278,0.143-4.941
			C360.869,209.537,360.817,211.184,360.726,212.814z"/>
	</g>
	<path style="fill:#3F2D20;" d="M56.725,189.705c-1.985,0-3.919,0.802-5.323,2.195c-1.392,1.403-2.195,3.338-2.195,5.323
		c0,1.974,0.802,3.908,2.195,5.312c1.403,1.403,3.338,2.205,5.323,2.205c1.975,0,3.909-0.802,5.313-2.205
		c1.402-1.404,2.204-3.338,2.204-5.312c0-1.985-0.803-3.919-2.204-5.323C60.634,190.507,58.7,189.705,56.725,189.705z"/>
	<path style="fill:#3F2D20;" d="M104.574,178.3c0-1.985-0.802-3.919-2.204-5.313c-1.394-1.403-3.338-2.204-5.313-2.204
		c-1.985,0-3.919,0.802-5.313,2.204c-1.402,1.394-2.204,3.328-2.204,5.313c0,1.974,0.802,3.918,2.204,5.312
		c1.394,1.403,3.338,2.205,5.313,2.205c1.975,0,3.909-0.802,5.313-2.205C103.772,182.218,104.574,180.274,104.574,178.3z"/>
	<path style="fill:#3F2D20;" d="M46.332,230.017c-1.975,0-3.919,0.801-5.313,2.205c-1.404,1.402-2.204,3.338-2.204,5.312
		c0,1.985,0.801,3.919,2.204,5.322c1.394,1.394,3.338,2.195,5.313,2.195c1.983,0,3.919-0.802,5.321-2.195
		c1.394-1.403,2.196-3.337,2.196-5.322c0-1.974-0.803-3.909-2.196-5.312C50.251,230.818,48.315,230.017,46.332,230.017z"/>
	<path style="fill:#3F2D20;" d="M86.664,211.094c-1.975,0-3.909,0.811-5.313,2.205c-1.404,1.403-2.204,3.338-2.204,5.312
		c0,1.984,0.801,3.919,2.204,5.322c1.403,1.404,3.338,2.205,5.313,2.205c1.973,0,3.917-0.801,5.321-2.205
		c1.394-1.403,2.197-3.338,2.197-5.322c0-1.974-0.803-3.909-2.197-5.312C90.581,211.905,88.637,211.094,86.664,211.094z"/>
	<path style="fill:#3F2D20;" d="M411.801,207.861c3.522-6.375,4.698-12.758,3.471-19.035c-2.239-11.452-11.639-17.602-12.703-18.265
		c-3.183-1.984-7.348-1.318-9.752,1.566c-5.445,6.531-12.389,13.684-18.175,19.391c-1.93-12.376-6.039-23.786-12.046-33.113
		c-9.241-14.348-21.867-22.251-35.554-22.251c0,0-228.374,0.089-228.746,0.089c-21.929,0-46.845,11.824-66.648,31.629
		c-15.414,15.415-26.067,33.894-29.996,52.034c-4.187,19.33-0.354,36.116,10.792,47.263c8.128,8.128,19.417,12.424,32.651,12.424
		c0.347,0,281.947,0,281.947,0c13.687,0,26.313-7.902,35.554-22.251c6.007-9.328,10.116-20.739,12.046-33.114
		c5.784,5.704,12.726,12.853,18.175,19.392c1.475,1.77,3.611,2.704,5.778,2.704c1.365,0,2.743-0.371,3.974-1.138
		c1.063-0.662,10.461-6.812,12.703-18.263C416.501,220.637,415.334,214.245,411.801,207.861z M396.791,203.507
		c-1.825,2.558-1.919,6.092,0.026,8.777c3.105,4.285,4.356,8.205,3.718,11.651c-0.269,1.453-0.85,2.758-1.549,3.884
		c-6.873-7.594-14.485-15.067-19.602-19.946c5.116-4.88,12.729-12.353,19.601-19.946c0.7,1.127,1.209,2.447,1.55,3.886
		C401.802,197.139,396.79,203.507,396.791,203.507z M91.167,264.557c7.21-4.609,14.161-10.179,20.574-16.592
		c15.414-15.415,26.067-33.895,29.996-52.035c3.884-17.929,0.856-33.66-8.494-44.742h193.799c18.336,0,33.826,25.958,33.826,56.686
		c0,30.726-15.49,56.684-33.826,56.684H91.167z M23.074,256.537c-15.943-15.945-7.149-51.681,19.204-78.034
		c17.047-17.048,37.989-27.226,56.018-27.226c9.158,0,16.771,2.774,22.017,8.019c15.944,15.946,7.149,51.684-19.204,78.038
		c-17.047,17.047-37.987,27.223-56.014,27.223C35.936,264.557,28.323,261.783,23.074,256.537z"/>
</g>
<g>
</g>
<g>
</g>
<g>
</g>
<g>
</g>
<g>
</g>
<g>
</g>
<g>
</g>
<g>
</g>
<g>
</g>
<g>
</g>
<g>
</g>
<g>
</g>
<g>
</g>
<g>
</g>
<g>
</g>
</svg>
