<?xml version="1.0" encoding="iso-8859-1"?>
<!-- Generator: Adobe Illustrator 18.0.0, SVG Export Plug-In . SVG Version: 6.00 Build 0)  -->
<!DOCTYPE svg PUBLIC "-//W3C//DTD SVG 1.1//EN" "http://www.w3.org/Graphics/SVG/1.1/DTD/svg11.dtd">
<svg version="1.1" id="Capa_1" xmlns="http://www.w3.org/2000/svg" xmlns:xlink="http://www.w3.org/1999/xlink" x="0px" y="0px"
	 viewBox="0 0 317.012 317.012" style="enable-background:new 0 0 317.012 317.012;" xml:space="preserve">
<g>
	<g>
		<g>
			<path style="fill:#FDD44B;" d="M26.903,146.112c-0.42-1.11-0.801-2.262-1.154-3.443
				C26.102,143.849,26.483,145.001,26.903,146.112z"/>
			<path style="fill:#FDD44B;" d="M28.297,149.385c-0.437-0.937-0.853-1.899-1.238-2.892
				C27.445,147.486,27.86,148.447,28.297,149.385z"/>
			<path style="fill:#FDD44B;" d="M25.506,141.804c-0.272-0.971-0.521-1.965-0.746-2.983
				C24.985,139.838,25.234,140.833,25.506,141.804z"/>
			<path style="fill:#FDD44B;" d="M30.203,153.056c-0.548-0.938-1.059-1.919-1.55-2.922
				C29.144,151.137,29.656,152.117,30.203,153.056z"/>
			<path style="fill:#FDD44B;" d="M24.565,137.948c-0.259-1.262-0.485-2.557-0.669-3.892
				C24.08,135.391,24.306,136.685,24.565,137.948z"/>
			<path style="fill:#FDD44B;" d="M34.469,159.106c0.714,0.848,1.456,1.661,2.222,2.44
				C35.924,160.768,35.183,159.954,34.469,159.106z"/>
			<path style="fill:#FDD44B;" d="M23.805,133.291c-0.142-1.124-0.255-2.275-0.343-3.45
				C23.55,131.016,23.664,132.167,23.805,133.291z"/>
			<path style="fill:#FDD44B;" d="M23.382,128.673c-0.083-1.439-0.141-2.902-0.141-4.418
				C23.241,125.77,23.299,127.233,23.382,128.673z"/>
			<path style="fill:#FDD44B;" d="M53.947,172.491c-1.036-0.385-2.059-0.802-3.068-1.25
				C51.888,171.688,52.91,172.106,53.947,172.491z"/>
			<path style="fill:#FDD44B;" d="M32.068,155.965c-0.637-0.916-1.252-1.859-1.83-2.846
				C30.816,154.106,31.431,155.049,32.068,155.965z"/>
			<path style="fill:#FDD44B;" d="M50.77,171.193c-2.005-0.896-3.948-1.923-5.817-3.079
				C46.822,169.271,48.765,170.297,50.77,171.193z"/>
			<path style="fill:#FDD44B;" d="M34.215,158.793c-0.613-0.74-1.202-1.511-1.772-2.305
				C33.013,157.283,33.603,158.052,34.215,158.793z"/>
			<path style="fill:#FDD44B;" d="M39.091,163.794c-0.747-0.651-1.476-1.328-2.183-2.036
				C37.615,162.466,38.344,163.143,39.091,163.794z"/>
			<path style="fill:#FDD44B;" d="M44.663,167.932c-1.826-1.149-3.576-2.428-5.235-3.843
				C41.087,165.505,42.837,166.783,44.663,167.932z"/>
		</g>
		<g>
			<path style="fill:#FDD44B;" d="M118.12,276.536c0.077,0.313,0.142,0.635,0.226,0.942
				C118.261,277.172,118.197,276.849,118.12,276.536z"/>
			<path style="fill:#FDD44B;" d="M116.946,268.92c0.028,0.401,0.072,0.789,0.109,1.183
				C117.018,269.709,116.974,269.321,116.946,268.92z"/>
			<path style="fill:#FDD44B;" d="M117.371,272.74c0.062,0.415,0.127,0.829,0.2,1.235
				C117.498,273.568,117.434,273.155,117.371,272.74z"/>
			<path style="fill:#FDD44B;" d="M119.38,280.685c0.087,0.231,0.194,0.446,0.285,0.673
				C119.573,281.131,119.467,280.916,119.38,280.685z"/>
			<path style="fill:#FDD44B;" d="M129.59,294.117c0.333,0.241,0.675,0.475,1.021,0.705
				C130.265,294.592,129.924,294.358,129.59,294.117z"/>
			<path style="fill:#FDD44B;" d="M124.457,289.372c0.154,0.182,0.293,0.378,0.452,0.556
				C124.75,289.749,124.612,289.554,124.457,289.372z"/>
			<path style="fill:#FDD44B;" d="M122.341,286.515c0.204,0.313,0.404,0.629,0.619,0.933
				C122.746,287.144,122.545,286.828,122.341,286.515z"/>
			<path style="fill:#FDD44B;" d="M120.709,283.683c0.17,0.338,0.352,0.666,0.533,0.995
				C121.061,284.348,120.878,284.021,120.709,283.683z"/>
			<path style="fill:#FDD44B;" d="M127.083,292.106c0.257,0.232,0.535,0.447,0.801,0.67
				C127.618,292.553,127.34,292.338,127.083,292.106z"/>
			<path style="fill:#FDD44B;" d="M133.49,296.542c-0.357-0.188-0.694-0.392-1.039-0.59
				C132.797,296.149,133.134,296.354,133.49,296.542z"/>
			<path style="fill:#FDD44B;" d="M144.887,126.013c-0.032,0.689-0.069,1.419-0.108,2.165
				C144.818,127.433,144.856,126.701,144.887,126.013z"/>
			<path style="fill:#FDD44B;" d="M145.005,123.132c-0.019,0.541-0.042,1.109-0.067,1.693
				C144.963,124.241,144.986,123.673,145.005,123.132z"/>
			<path style="fill:#FDD44B;" d="M144.724,129.245c-0.063,1.146-0.132,2.344-0.211,3.626
				C144.592,131.588,144.661,130.39,144.724,129.245z"/>
			<path style="fill:#FDD44B;" d="M137.118,298.201c-0.244-0.097-0.497-0.186-0.737-0.287
				C136.62,298.015,136.874,298.104,137.118,298.201z"/>
			<path style="fill:#FDD44B;" d="M261.563,52.663c-18.574-11.09-44.932-20.548-80.992-20.834
				c-51.014,0.403-82.635,19.16-100.223,34.933c-22.271,19.973-35.043,47.04-35.043,74.26c0,13.315,3.295,23.647,8.657,31.474
				c6.955,2.58,14.467,3.763,21.848,3.793c14.519-1.165,24.333-7.089,26.267-15.887c0.896-4.078-0.329-8.083-2.915-9.524
				c-1.063-0.593-2.035-0.974-2.977-1.18c-1.792,0.08-3.557,0.24-5.127,0.432c-1.383,0.452-2.9,1.126-4.706,1.956
				c-5.494,2.524-14.684,6.75-23.519-1.664c-4.02-3.828-4.852-9.835-2.227-16.067c5.026-11.926,26.814-31.618,76.644-29.804
				c2.147,0.081,4.178,1.069,5.577,2.712c1.572,1.846,2.574,3.057,2.216,14.775c0.006-0.204,0.016-0.432,0.021-0.63
				c4.475-0.226,10.506,24.012,8.449,55.993c-0.939,14.6-2.729,24.325-7.005,35.501c-2.492,6.519-5.319,13.907-8.133,23.328
				c-7.164,23.989-6.567,34.001-6.484,34.988c0.086,0.441,0.08,0.639,0.08,1.12c0,11.986,3.488,21.076,10.39,27.255
				c0.05,0.108,0.096,0.222,0.146,0.332c4.706,1.22,10.014,1.918,16.001,2.022c27.672-0.48,41.709-12.919,41.709-37.01
				c0-0.483-0.006-0.68,0.08-1.123c0.084-0.988,0.684-10.999-6.484-34.983c-2.813-9.42-5.639-16.807-8.131-23.325
				c-4.276-11.177-7.967-20.832-9.758-35.353c-1.407-11.395-2.686-25.326-3.422-37.266c-1.357-22.048-0.276-23.317,1.685-25.623
				c1.4-1.643,3.429-2.631,5.571-2.712c49.809-1.821,71.625,17.878,76.65,29.804c2.625,6.233,1.793,12.239-2.228,16.068
				c-8.833,8.413-18.024,4.187-23.517,1.663c-5.545-2.549-8.405-3.663-12.811-1.208c-2.586,1.441-3.811,5.446-2.915,9.524
				c1.934,8.798,11.748,14.722,26.267,15.887c25.471-0.106,52.567-13.815,52.567-52.035
				C293.771,98.221,282.064,72.344,261.563,52.663z"/>
			<path style="fill:#FDD44B;" d="M141.235,299.593c-0.454-0.131-0.914-0.257-1.356-0.399
				C140.321,299.335,140.781,299.462,141.235,299.593z"/>
		</g>
	</g>
	<path style="fill:#3F2D20;" d="M268.771,38.796C249.526,21.536,215.334,1.052,161.006,0.049C160.732,0.018,160.456,0,160.174,0
		c-0.562,0-1.109,0.016-1.667,0.019C157.949,0.016,157.402,0,156.84,0c-0.282,0-0.558,0.018-0.832,0.049
		C101.68,1.052,67.487,21.536,48.242,38.796C22.795,61.619,8.2,92.767,8.2,124.255c0,46.242,33.963,66.989,67.694,67.078
		c0.01,0,0.021,0,0.032,0c0.061,0,0.121,0.004,0.182,0.004c0.101,0,0.199-0.012,0.299-0.016c0.09-0.003,0.179,0.001,0.269-0.006
		c0.056-0.004,0.107-0.011,0.162-0.016c0.023-0.002,0.045-0.004,0.068-0.006c31.884-2.509,38.571-21.794,39.861-27.659
		c2.363-10.741-1.768-21.147-10.28-25.893c-11.272-6.283-20.387-2.094-26.419,0.68c-3.502,1.609-4.831,2.088-5.666,1.913
		c0.479-1.198,1.691-3.255,4.366-5.764c4.945-4.639,19.488-14.914,51.294-15.092c-0.183,9.733-1.588,30.111-3.898,48.832
		c-1.568,12.701-4.794,21.137-8.88,31.818c-2.587,6.766-5.52,14.433-8.497,24.396c-7.68,25.718-7.336,37.682-7.031,40.841
		c0.1,17.28,6.266,31.104,17.846,40c9.13,7.014,21.229,10.878,35.993,11.534c0.405,0.067,0.821,0.112,1.246,0.112
		c0.562,0,1.111-0.016,1.667-0.024c0.555,0.009,1.105,0.024,1.667,0.024c0.425,0,0.84-0.044,1.246-0.112
		c14.763-0.656,26.861-4.519,35.992-11.534c11.58-8.896,17.745-22.719,17.845-39.999c0.306-3.164,0.651-15.13-7.031-40.842
		c-2.976-9.961-5.908-17.628-8.495-24.392c-4.085-10.683-7.312-19.12-8.879-31.823c-2.311-18.72-3.716-39.098-3.899-48.832
		c31.801,0.179,46.348,10.454,51.294,15.092c2.674,2.509,3.888,4.565,4.365,5.764c-0.831,0.175-2.163-0.304-5.664-1.913
		c-6.035-2.774-15.15-6.963-26.419-0.68c-8.512,4.745-12.643,15.151-10.28,25.893c1.29,5.865,7.977,25.151,39.861,27.659
		c0.022,0.002,0.045,0.004,0.068,0.006c0.056,0.005,0.107,0.012,0.162,0.016c0.094,0.008,0.187,0.004,0.28,0.007
		c0.096,0.004,0.191,0.015,0.288,0.015c0.055,0,0.11-0.003,0.164-0.003c0.022-0.001,0.043-0.001,0.064-0.001
		c33.725-0.094,67.678-20.843,67.678-67.078C308.812,92.767,294.218,61.619,268.771,38.796z M214.937,160.403
		c-0.896-4.078,0.329-8.083,2.915-9.524c4.406-2.454,7.266-1.341,12.811,1.208c5.493,2.524,14.684,6.75,23.517-1.663
		c4.021-3.829,4.853-9.835,2.228-16.068c-5.025-11.926-26.841-31.625-76.65-29.804c-2.142,0.08-4.172,1.069-5.571,2.712
		c-1.962,2.305-3.043,3.574-1.685,25.622c0.735,11.939,2.014,25.871,3.422,37.266c1.791,14.521,5.483,24.176,9.758,35.353
		c2.492,6.518,5.318,13.905,8.131,23.325c7.167,23.984,6.568,33.995,6.484,34.983c-0.086,0.443-0.08,0.64-0.08,1.123
		c0,24.092-14.037,36.53-41.709,37.01c-27.674-0.48-41.711-12.918-41.711-37.01c0-0.481,0.006-0.679-0.08-1.119
		c-0.083-0.987-0.681-10.999,6.484-34.988c2.815-9.421,5.641-16.809,8.133-23.328c4.275-11.176,7.967-20.829,9.759-35.348
		c1.406-11.398,2.685-25.329,3.421-37.266c1.357-22.049,0.276-23.318-1.686-25.623c-1.399-1.643-3.43-2.631-5.577-2.712
		c-49.83-1.813-71.618,17.877-76.644,29.804c-2.626,6.232-1.793,12.239,2.227,16.067c8.835,8.414,18.025,4.188,23.519,1.664
		c1.806-0.831,3.324-1.504,4.706-1.956c1.838-0.601,3.435-0.803,5.127-0.432c0.942,0.207,1.914,0.587,2.977,1.18
		c2.586,1.441,3.811,5.447,2.915,9.524c-1.934,8.798-11.748,14.722-26.267,15.887c-25.472-0.106-52.569-13.814-52.569-52.035
		c0-27.22,12.772-54.287,35.043-74.261c17.588-15.773,49.209-34.53,100.223-34.933c51.014,0.403,82.634,19.16,100.222,34.933
		c22.269,19.973,35.042,47.04,35.042,74.261c0,38.221-27.096,51.93-52.567,52.035C226.685,175.126,216.871,169.201,214.937,160.403z
		"/>
</g>
<g>
</g>
<g>
</g>
<g>
</g>
<g>
</g>
<g>
</g>
<g>
</g>
<g>
</g>
<g>
</g>
<g>
</g>
<g>
</g>
<g>
</g>
<g>
</g>
<g>
</g>
<g>
</g>
<g>
</g>
</svg>
