<?xml version="1.0" encoding="iso-8859-1"?>
<!-- Generator: Adobe Illustrator 19.0.0, SVG Export Plug-In . SVG Version: 6.00 Build 0)  -->
<svg version="1.1" id="Layer_1" xmlns="http://www.w3.org/2000/svg" xmlns:xlink="http://www.w3.org/1999/xlink" x="0px" y="0px"
	 viewBox="0 0 512 512" style="enable-background:new 0 0 512 512;" xml:space="preserve">
<path style="fill:#F7B239;" d="M354.157,86.312c-20.297,32.884-56.668,54.806-98.166,54.806c-27.718,0-53.141-9.781-73.018-26.092
	c-9.886-8.077-18.395-17.792-25.135-28.714c45.405-42.127,96.527-59.933,98.113-60.483c0.026,0,0.039-0.013,0.039-0.013
	S308.031,43.529,354.157,86.312z"/>
<path style="fill:#E09B2D;" d="M255.952,25.828c-1.246,0.734-31.205,18.579-57.835,60.483c-0.669,1.049-1.337,2.111-1.993,3.186
	c-5.035,8.195-9.427,16.73-13.151,25.528c-9.886-8.077-18.395-17.792-25.135-28.714C203.244,44.184,254.366,26.379,255.952,25.828z"
	/>
<path style="fill:#9AD14B;" d="M453.962,159.893c8.772,25.345,13.229,52.158,13.229,80.111c0,116.469-94.731,211.2-211.2,211.2
	c-5.481,0-10.922-0.21-16.311-0.616c6.189-8.588,11.656-17.74,16.324-27.337v-0.013c11.827-24.414,18.474-51.804,18.474-80.741
	c0-28.95-6.648-56.34-18.474-80.741v-0.013c27.796-57.284,84.215-98.074,150.664-103.777c5.297-0.459,10.673-0.695,16.088-0.695
	C433.403,157.271,443.814,158.163,453.962,159.893z"/>
<path style="fill:#B27214;" d="M406.669,157.953v0.013c-66.449,5.704-122.868,46.493-150.664,103.777
	c-18.487-38.089-49.64-68.888-87.978-86.929c-3.619-1.704-7.303-3.291-11.053-4.746c-2.491-0.996-5.009-1.927-7.565-2.793
	c-1.219-0.433-2.452-0.839-3.697-1.219c-0.079-0.026-0.17-0.052-0.249-0.079c-2.531-0.826-5.1-1.573-7.683-2.268
	c-1.141-0.315-2.281-0.616-3.435-0.892c-0.315-0.079-0.642-0.157-0.957-0.236c-1.049-0.262-2.098-0.511-3.147-0.747
	c-0.17-0.039-0.341-0.079-0.511-0.118c-1.167-0.262-2.334-0.511-3.501-0.747c-0.42-0.079-0.852-0.17-1.285-0.249
	c-0.865-0.17-1.731-0.328-2.596-0.485c-0.275-0.052-0.538-0.105-0.8-0.144c-0.826-0.144-1.652-0.288-2.478-0.42
	c-1.036-0.17-2.085-0.328-3.134-0.472c-1.023-0.157-2.045-0.302-3.068-0.42c-1.023-0.131-2.032-0.262-3.055-0.367
	c-0.144-0.026-0.302-0.039-0.459-0.052c-1.337-0.144-2.688-0.275-4.038-0.393v-0.013c13.085-29.16,32.228-52.826,52.525-71.641
	c6.739,10.922,15.249,20.637,25.135,28.714c19.877,16.311,45.3,26.092,73.018,26.092c41.498,0,77.869-21.922,98.166-54.806
	C374.441,105.14,393.584,128.805,406.669,157.953z"/>
<path style="fill:#995C0D;" d="M182.974,115.026c-8.05,18.985-13.046,39.177-14.947,59.788c0,0.013,0,0.013,0,0.026
	c-3.619-1.704-7.303-3.304-11.053-4.773c-2.491-0.983-5.022-1.914-7.565-2.793c-1.232-0.42-2.465-0.826-3.697-1.219
	c-0.079-0.026-0.17-0.052-0.249-0.079c-2.544-0.813-5.1-1.56-7.683-2.268c-1.141-0.315-2.281-0.603-3.435-0.892
	c-0.315-0.079-0.642-0.157-0.957-0.236c-1.049-0.262-2.098-0.511-3.147-0.747c-0.17-0.039-0.341-0.079-0.511-0.118
	c-1.154-0.262-2.321-0.511-3.501-0.747c-0.42-0.079-0.852-0.17-1.285-0.249c-0.865-0.17-1.731-0.328-2.596-0.485
	c-0.275-0.052-0.538-0.105-0.8-0.144c-0.826-0.144-1.652-0.288-2.478-0.42c-1.036-0.17-2.085-0.328-3.134-0.472
	c-1.023-0.157-2.045-0.302-3.068-0.42c-1.01-0.131-2.032-0.262-3.055-0.367c-0.144-0.026-0.302-0.039-0.459-0.052
	c-1.337-0.144-2.688-0.275-4.038-0.393v-0.013c13.085-29.16,32.228-52.826,52.525-71.641
	C164.578,97.233,173.087,106.948,182.974,115.026z"/>
<path style="fill:#90BC42;" d="M256.005,261.756c11.827,24.4,18.474,51.79,18.474,80.741c0,28.937-6.648,56.327-18.474,80.741v0.013
	c-4.668,9.598-10.135,18.749-16.324,27.337c-108.852-8.352-194.876-99.595-194.876-210.584c0-27.954,4.471-54.767,13.243-80.111
	c10.148-1.731,20.559-2.622,31.205-2.622c5.415,0,10.765,0.236,16.062,0.695c66.449,5.703,122.881,46.493,150.69,103.777
	L256.005,261.756L256.005,261.756z"/>
<path style="fill:#84A835;" d="M114.296,240.003c0-27.483,4.332-53.862,12.814-78.829c-7.126-1.479-14.395-2.574-21.795-3.21
	c-5.297-0.459-10.647-0.695-16.062-0.695c-10.647,0-21.057,0.892-31.205,2.622c-8.772,25.345-13.243,52.158-13.243,80.111
	c0,110.989,86.025,202.232,194.876,210.584c3.215-4.462,6.231-9.077,9.044-13.826C170.12,405.987,114.296,329.408,114.296,240.003z"
	/>
<g>
	<path style="fill:#FFFFFF;" d="M432.892,223.951c-4.915,0-9.162-3.679-9.752-8.681c-0.977-8.279-2.472-16.52-4.438-24.496
		c-1.301-5.272,1.918-10.602,7.19-11.903c5.272-1.305,10.603,1.918,11.903,7.192c2.162,8.765,3.802,17.815,4.876,26.901
		c0.636,5.393-3.219,10.282-8.612,10.919C433.667,223.928,433.277,223.951,432.892,223.951z"/>
	<circle style="fill:#FFFFFF;" cx="255.989" cy="61.128" r="9.834"/>
</g>
<g>
	<path style="fill:#333333;" d="M502.166,249.849c5.432,0,9.834-4.403,9.834-9.834c0-5.431-4.402-9.834-9.834-9.834h-25.324
		c-0.931-25.337-5.461-49.95-13.517-73.293c-0.198-0.619-0.46-1.222-0.784-1.799c-1.451-2.592-3.996-4.388-6.924-4.888
		c-10.778-1.84-21.835-2.772-32.867-2.772c-3.358,0-6.703,0.115-10.041,0.286c-23.529-48.054-62.718-80.691-92.056-99.851
		C287.679,26.33,260.31,16.901,259.162,16.51c-2.053-0.699-4.282-0.699-6.335,0c-1.149,0.391-28.518,9.821-61.493,31.355
		c-29.338,19.159-68.529,51.797-92.056,99.849c-3.332-0.169-6.671-0.286-10.022-0.286c-11.032,0-22.09,0.932-32.867,2.772
		c-2.928,0.5-5.473,2.297-6.924,4.889c-0.311,0.556-0.566,1.137-0.762,1.732c-8.07,23.362-12.607,47.993-13.539,73.358H9.834
		c-5.432,0-9.834,4.403-9.834,9.834s4.402,9.834,9.834,9.834h25.371c0.569,12.923,2.255,25.56,4.959,37.819l-24.487,6.561
		c-5.246,1.406-8.359,6.798-6.953,12.044c1.176,4.394,5.15,7.291,9.491,7.291c0.843,0,1.699-0.109,2.551-0.337l24.486-6.561
		c3.877,12.232,8.794,24.005,14.642,35.217l-21.996,12.7c-4.703,2.715-6.314,8.73-3.599,13.433c1.822,3.155,5.127,4.918,8.525,4.918
		c1.668,0,3.36-0.426,4.908-1.319l22.014-12.71c6.88,10.741,14.667,20.845,23.243,30.215l-18.009,18.009
		c-3.84,3.84-3.84,10.067,0,13.906c1.921,1.919,4.438,2.881,6.954,2.881c2.516,0,5.033-0.96,6.954-2.881l18.007-18.007
		c9.369,8.578,19.475,16.364,30.214,23.245l-12.709,22.013c-2.715,4.703-1.104,10.717,3.599,13.433
		c1.55,0.894,3.24,1.319,4.908,1.319c3.399,0,6.704-1.765,8.525-4.918l12.698-21.993c11.213,5.848,22.986,10.765,35.219,14.642
		l-6.56,24.482c-1.406,5.246,1.707,10.637,6.953,12.044c0.852,0.228,1.71,0.337,2.551,0.337c4.343,0,8.315-2.898,9.491-7.291
		l6.56-24.483c12.261,2.705,24.897,4.39,37.82,4.959v25.368c0,5.431,4.402,9.834,9.834,9.834c5.432,0,9.834-4.403,9.834-9.834
		v-25.368c12.923-0.569,25.56-2.255,37.82-4.96l6.561,24.484c1.176,4.394,5.15,7.291,9.491,7.291c0.843,0,1.699-0.109,2.551-0.337
		c5.246-1.406,8.359-6.798,6.953-12.044l-6.561-24.484c12.232-3.877,24.005-8.794,35.217-14.642l12.7,21.996
		c1.821,3.155,5.127,4.918,8.525,4.918c1.668,0,3.36-0.425,4.908-1.319c4.703-2.715,6.315-8.73,3.599-13.433l-12.71-22.016
		c10.74-6.88,20.845-14.667,30.214-23.244l18.009,18.009c1.921,1.92,4.438,2.881,6.954,2.881s5.033-0.96,6.954-2.881
		c3.84-3.84,3.84-10.067,0-13.906l-18.009-18.009c8.578-9.369,16.364-19.475,23.244-30.214l22.014,12.71
		c1.548,0.894,3.24,1.319,4.908,1.319c3.399,0,6.704-1.763,8.525-4.918c2.715-4.703,1.104-10.717-3.599-13.433l-21.996-12.7
		c5.849-11.214,10.765-22.986,14.643-35.217l24.482,6.56c0.852,0.228,1.71,0.337,2.552,0.337c4.343,0,8.315-2.898,9.491-7.291
		c1.406-5.246-1.707-10.639-6.953-12.044l-24.484-6.561c2.705-12.259,4.391-24.896,4.96-37.819h25.369V249.849z M446.522,168.703
		c7.196,22.697,10.842,46.655,10.842,71.306c0,110.56-89.557,200.597-199.94,201.364c2.579-4.374,4.984-8.859,7.218-13.422
		c0.02-0.037,0.038-0.075,0.056-0.111c0.052-0.108,0.11-0.211,0.163-0.319c12.908-26.649,19.454-55.256,19.454-85.027
		c0-28.129-5.842-55.218-17.379-80.606c14.198-27.402,35.377-50.6,61.488-67.29c28.144-17.992,60.763-27.5,94.328-27.5
		C430.71,167.098,438.682,167.637,446.522,168.703z M255.993,36.313c11.07,4.298,49.188,20.463,85.174,51.695
		c-19.838,27.235-51.097,43.271-85.172,43.271s-65.336-16.035-85.174-43.272C206.812,56.773,244.931,40.609,255.993,36.313z
		 M156.37,101.558c23.589,31.135,60.007,49.388,99.624,49.388s76.034-18.255,99.622-49.388
		c13.528,13.725,26.138,29.784,36.13,48.364c-26.237,4.201-51.368,13.691-73.917,28.106c-25.258,16.145-46.367,37.776-61.825,63.196
		c-15.462-25.422-36.575-47.049-61.827-63.193c-22.554-14.419-47.693-23.91-73.937-28.11
		C130.233,131.34,142.842,115.281,156.37,101.558z M54.641,240.008c0-24.655,3.645-48.612,10.842-71.306
		c7.839-1.066,15.812-1.605,23.771-1.605c33.567,0,66.186,9.51,94.331,27.503c27.415,17.526,49.402,42.232,63.576,71.441
		c11.604,23.955,17.487,49.677,17.487,76.452c0,26.776-5.883,52.498-17.479,76.437c-3.595,7.39-7.719,14.55-12.289,21.347
		C133.737,429.69,54.641,343.913,54.641,240.008z"/>
	<path style="fill:#333333;" d="M140.789,240.015c0-5.431-4.402-9.834-9.834-9.834H95.983c-5.432,0-9.834,4.403-9.834,9.834
		c0,5.431,4.402,9.834,9.834,9.834h34.972C136.387,249.849,140.789,245.446,140.789,240.015z"/>
	<path style="fill:#333333;" d="M193.292,340.435c-4.707-2.717-10.719-1.104-13.433,3.599l-17.485,30.286
		c-2.715,4.703-1.104,10.717,3.599,13.433c1.55,0.894,3.24,1.319,4.908,1.319c3.398,0,6.704-1.765,8.525-4.918l17.485-30.286
		C199.607,349.163,197.995,343.149,193.292,340.435z"/>
	<path style="fill:#333333;" d="M163.995,295.146c-2.714-4.704-8.732-6.316-13.433-3.599l-30.286,17.485
		c-4.703,2.715-6.314,8.73-3.599,13.433c1.821,3.155,5.127,4.918,8.525,4.918c1.668,0,3.36-0.425,4.908-1.319l30.286-17.485
		C165.099,305.864,166.71,299.849,163.995,295.146z"/>
	<path style="fill:#333333;" d="M381.033,249.849h34.972c5.432,0,9.834-4.403,9.834-9.834c0-5.431-4.402-9.834-9.834-9.834h-34.972
		c-5.432,0-9.834,4.403-9.834,9.834C371.2,245.446,375.602,249.849,381.033,249.849z"/>
	<path style="fill:#333333;" d="M318.696,340.435c-4.703,2.715-6.315,8.73-3.599,13.433l17.486,30.286
		c1.821,3.155,5.127,4.918,8.525,4.918c1.668,0,3.36-0.425,4.908-1.319c4.703-2.715,6.315-8.73,3.599-13.433l-17.485-30.286
		C329.415,339.329,323.398,337.718,318.696,340.435z"/>
	<path style="fill:#333333;" d="M351.593,308.579l30.286,17.486c1.55,0.894,3.24,1.319,4.908,1.319c3.399,0,6.704-1.765,8.525-4.918
		c2.715-4.703,1.104-10.717-3.599-13.433l-30.286-17.485c-4.706-2.717-10.719-1.104-13.433,3.599
		C345.278,299.849,346.89,305.864,351.593,308.579z"/>
</g>
<path style="fill:#FFFFFF;" d="M358.079,149.363c-3.021,0-6.001-1.387-7.929-4.007c-7.121-9.678-15.525-19.037-24.983-27.815
	c-11.992-11.121-25.786-21.437-40.998-30.655c-4.644-2.815-6.127-8.862-3.312-13.506c2.815-4.644,8.859-6.127,13.507-3.313
	c16.347,9.907,31.212,21.03,44.179,33.057c10.363,9.62,19.596,19.907,27.448,30.577c3.219,4.374,2.281,10.53-2.094,13.749
	C362.143,148.742,360.102,149.363,358.079,149.363z"/>
<g>
</g>
<g>
</g>
<g>
</g>
<g>
</g>
<g>
</g>
<g>
</g>
<g>
</g>
<g>
</g>
<g>
</g>
<g>
</g>
<g>
</g>
<g>
</g>
<g>
</g>
<g>
</g>
<g>
</g>
</svg>
