<?xml version="1.0" encoding="iso-8859-1"?>
<!-- Generator: Adobe Illustrator 18.0.0, SVG Export Plug-In . SVG Version: 6.00 Build 0)  -->
<!DOCTYPE svg PUBLIC "-//W3C//DTD SVG 1.1//EN" "http://www.w3.org/Graphics/SVG/1.1/DTD/svg11.dtd">
<svg version="1.1" id="Capa_1" xmlns="http://www.w3.org/2000/svg" xmlns:xlink="http://www.w3.org/1999/xlink" x="0px" y="0px"
	 viewBox="0 0 304.799 304.799" style="enable-background:new 0 0 304.799 304.799;" xml:space="preserve">
<g>
	<g>
		<g>
			<path style="fill:#EF8829;" d="M34.562,177.16c-0.228-1.288-0.374-2.595-0.523-3.9C34.188,174.565,34.335,175.872,34.562,177.16z
				"/>
			<path style="fill:#EF8829;" d="M33.827,171.626c-0.164-1.858-0.25-3.73-0.25-5.618C33.577,167.896,33.664,169.768,33.827,171.626
				z"/>
			<path style="fill:#EF8829;" d="M96.031,88.065c0.103-0.087,0.204-0.175,0.308-0.262C96.236,87.89,96.135,87.978,96.031,88.065z"
				/>
			<path style="fill:#EF8829;" d="M35.769,182.597c-0.321-1.204-0.567-2.427-0.819-3.648
				C35.202,180.17,35.448,181.393,35.769,182.597z"/>
			<path style="fill:#EF8829;" d="M102.495,82.878c0.341-0.261,0.687-0.519,1.03-0.778
				C103.182,82.359,102.836,82.617,102.495,82.878z"/>
			<path style="fill:#EF8829;" d="M39.544,193.126c-0.528-1.167-0.99-2.354-1.451-3.542
				C38.554,190.772,39.016,191.959,39.544,193.126z"/>
			<path style="fill:#EF8829;" d="M48.354,207.827c-0.816-1.077-1.579-2.177-2.333-3.281
				C46.774,205.65,47.538,206.749,48.354,207.827z"/>
			<path style="fill:#EF8829;" d="M45.022,203.092c-0.729-1.119-1.401-2.262-2.065-3.406
				C43.621,200.831,44.293,201.972,45.022,203.092z"/>
			<path style="fill:#EF8829;" d="M37.435,187.924c-0.423-1.179-0.774-2.378-1.13-3.576
				C36.66,185.547,37.013,186.745,37.435,187.924z"/>
			<path style="fill:#EF8829;" d="M42.079,198.187c-0.632-1.149-1.202-2.321-1.768-3.493
				C40.876,195.867,41.447,197.038,42.079,198.187z"/>
		</g>
		<g>
			<path style="fill:#EF8829;" d="M79.37,232.439c0.449,0.411,0.886,0.827,1.345,1.232C80.255,233.266,79.818,232.85,79.37,232.439z
				"/>
			<path style="fill:#EF8829;" d="M78.954,234.123c2.097,1.209,4.234,2.382,6.443,3.487
				C83.188,236.505,81.051,235.332,78.954,234.123z"/>
			<path style="fill:#EF8829;" d="M67.399,219.448c0.089,0.117,0.191,0.228,0.28,0.345c-11.282-14.685-17.126-31.588-17.126-50.17
				c0-21.554,9.745-43.953,28.182-64.775c1.666-1.882,3.406-3.723,5.181-5.543c-3.905,2.591-7.67,5.393-11.263,8.413
				C50.84,126.046,38.33,149.811,38.33,172.922c0,12.503,3.659,24.391,10.211,35.14c7.601,9.963,17.815,18.715,29.952,25.784
				C74.212,229.288,70.511,224.483,67.399,219.448z"/>
			<path style="fill:#EF8829;" d="M70.949,223.806c0.368,0.428,0.753,0.847,1.131,1.27
				C71.702,224.653,71.317,224.233,70.949,223.806z"/>
			<path style="fill:#EF8829;" d="M76.296,229.523c-0.467-0.463-0.925-0.929-1.38-1.397C75.37,228.594,75.829,229.06,76.296,229.523
				z"/>
		</g>
	</g>
	<g>
		<path style="fill:#EF8829;" d="M65.902,176.217c-0.084-0.884-0.14-1.784-0.19-2.687C65.762,174.433,65.819,175.333,65.902,176.217
			z"/>
		<path style="fill:#EF8829;" d="M65.673,172.96c-0.051-1.098-0.078-2.21-0.078-3.337C65.595,170.75,65.621,171.862,65.673,172.96z"
			/>
		<path style="fill:#EF8829;" d="M114.999,104.479c-0.003,0.005-0.006,0.01-0.008,0.015c-28.563,21.67-46.371,49.286-46.371,75.067
			c0,5.133,0.558,9.963,1.558,14.525c-1.078-2.714-1.986-5.544-2.704-8.491c6.428,26.422,28.288,43.303,48.411,53.55
			c-11.329-13.7-18.301-29.227-20.804-46.459C90.48,161.006,101.787,129.216,114.999,104.479z"/>
		<path style="fill:#EF8829;" d="M66.279,179.396c-0.125-0.872-0.223-1.76-0.315-2.651
			C66.055,177.637,66.154,178.524,66.279,179.396z"/>
		<path style="fill:#EF8829;" d="M117.976,99.072c0.014-0.024,0.028-0.049,0.042-0.073
			C118.003,99.024,117.989,99.048,117.976,99.072z"/>
		<path style="fill:#EF8829;" d="M120.99,93.902c0.034-0.057,0.068-0.113,0.103-0.17C121.058,93.789,121.024,93.845,120.99,93.902z"
			/>
		<path style="fill:#EF8829;" d="M66.798,182.498c-0.173-0.901-0.322-1.815-0.459-2.737
			C66.476,180.683,66.625,181.598,66.798,182.498z"/>
		<path style="fill:#EF8829;" d="M124.007,88.99c0.054-0.085,0.107-0.168,0.161-0.253C124.114,88.822,124.061,88.904,124.007,88.99z
			"/>
		<path style="fill:#EF8829;" d="M67.453,185.517c-0.227-0.936-0.43-1.884-0.617-2.844
			C67.022,183.633,67.226,184.581,67.453,185.517z"/>
	</g>
	<g>
		<path style="fill:#EF8829;" d="M112.086,200.41c-0.211-0.746-0.424-1.491-0.612-2.245
			C111.661,198.92,111.876,199.664,112.086,200.41z"/>
		<path style="fill:#EF8829;" d="M111.009,196.112c-0.125-0.564-0.261-1.122-0.373-1.69
			C110.748,194.99,110.885,195.548,111.009,196.112z"/>
		<path style="fill:#EF8829;" d="M112.424,196.185c1.151,7.898,3.748,15.392,7.179,22.474c-0.629-1.068-1.66-2.146-2.234-3.233
			c5.98,11.333,16.364,21.573,26.364,30.628V95.006C128.733,118.582,106.903,158.327,112.424,196.185z"/>
		<path style="fill:#EF8829;" d="M114.731,208.187c-0.381-0.944-0.746-1.894-1.088-2.852
			C113.984,206.294,114.352,207.243,114.731,208.187z"/>
		<path style="fill:#EF8829;" d="M118.021,215.303c-0.549-1.044-1.072-2.098-1.571-3.16
			C116.948,213.205,117.472,214.259,118.021,215.303z"/>
		<path style="fill:#EF8829;" d="M116.297,211.812c-0.465-1.002-0.908-2.013-1.329-3.031
			C115.388,209.8,115.833,210.81,116.297,211.812z"/>
		<path style="fill:#EF8829;" d="M113.327,204.405c-0.296-0.864-0.585-1.729-0.85-2.604
			C112.741,202.675,113.032,203.541,113.327,204.405z"/>
	</g>
	<g>
		<path style="fill:#EF8829;" d="M165.808,27.174c0.117-1.664,0.289-3.364,0.557-5.123C166.096,23.81,165.924,25.511,165.808,27.174
			z"/>
		<path style="fill:#EF8829;" d="M132.789,56.884c1.564-0.204,3.134-0.382,4.708-0.537C135.923,56.501,134.353,56.68,132.789,56.884
			z"/>
		<path style="fill:#EF8829;" d="M165.674,31.981c-0.011-0.995,0.019-2.019,0.062-3.053
			C165.694,29.962,165.662,30.986,165.674,31.981z"/>
		<path style="fill:#EF8829;" d="M165.908,36.484c-0.073-0.808-0.129-1.632-0.167-2.469
			C165.78,34.851,165.834,35.675,165.908,36.484z"/>
		<path style="fill:#EF8829;" d="M172.62,57.406c-0.124-0.518-1.353-1.629-1.464-2.164c0.28,0.563,0.565,1.113,0.853,1.643
			c-2.601-4.783-4.92-10.919-5.881-18.324c0.03,0.229,0.042,0.473,0.074,0.699c-0.892,1.123-1.723,2.338-2.46,3.659
			c-1.446,2.593-4.199,3.989-6.976,3.84c-2.777,0.149-5.53-1.247-6.976-3.84c-1.889-3.386-4.385-6.101-6.989-8.252
			c1.241,8.119,0.399,15.606-0.957,21.682c3.335-0.224,10.183,0.269,10.204,0.269c0.022,0,0.324,0.678,0.352-0.269
			C152.401,56.302,172.787,57.427,172.62,57.406z"/>
	</g>
	<g>
		<path style="fill:#EF8829;" d="M266.47,172.922c0-23.11-12.511-46.876-34.323-65.204c-3.594-3.02-7.358-5.82-11.262-8.411
			c1.776,1.82,3.515,3.66,5.181,5.542c18.436,20.822,28.181,43.221,28.181,64.775c0,26.642-11.977,49.851-34.843,67.986
			c15.207-7.608,27.85-17.742,36.856-29.548C262.811,197.313,266.47,185.425,266.47,172.922z"/>
		<path style="fill:#EF8829;" d="M201.278,82.103c0.341,0.257,0.684,0.513,1.022,0.772C201.961,82.615,201.618,82.36,201.278,82.103
			z"/>
		<path style="fill:#EF8829;" d="M265.845,139.423c0.203,0.504,0.395,1.008,0.586,1.513
			C266.24,140.431,266.048,139.926,265.845,139.423z"/>
		<path style="fill:#EF8829;" d="M262.241,131.613c0.011,0.021,0.02,0.043,0.031,0.063
			C262.261,131.656,262.252,131.634,262.241,131.613z"/>
		<path style="fill:#EF8829;" d="M259.504,126.816c-5.674-9.345-13.281-18.177-22.604-26.011
			c-12.336-10.364-26.624-18.245-42.027-23.347c15.402,5.102,29.69,12.983,42.026,23.347
			C246.223,108.639,253.83,117.47,259.504,126.816z"/>
		<path style="fill:#EF8829;" d="M270.972,171.626c0.164-1.858,0.25-3.73,0.25-5.618
			C271.223,167.896,271.136,169.768,270.972,171.626z"/>
		<path style="fill:#EF8829;" d="M208.467,87.808c0.097,0.081,0.191,0.164,0.288,0.246C208.659,87.973,208.564,87.89,208.467,87.808
			z"/>
		<path style="fill:#EF8829;" d="M259.777,203.094c0.732-1.124,1.407-2.27,2.073-3.42
			C261.183,200.823,260.508,201.97,259.777,203.094z"/>
		<path style="fill:#EF8829;" d="M262.719,198.191c0.635-1.156,1.209-2.333,1.777-3.511
			C263.927,195.859,263.354,197.036,262.719,198.191z"/>
		<path style="fill:#EF8829;" d="M270.236,177.163c0.229-1.295,0.377-2.608,0.526-3.92
			C270.613,174.555,270.466,175.868,270.236,177.163z"/>
		<path style="fill:#EF8829;" d="M256.446,207.826c0.817-1.078,1.581-2.178,2.336-3.284
			C258.027,205.647,257.262,206.748,256.446,207.826z"/>
		<path style="fill:#EF8829;" d="M269.029,182.6c0.324-1.216,0.573-2.451,0.827-3.684
			C269.602,180.149,269.354,181.384,269.029,182.6z"/>
		<path style="fill:#EF8829;" d="M267.364,187.927c0.425-1.188,0.781-2.394,1.138-3.601
			C268.144,185.532,267.789,186.739,267.364,187.927z"/>
		<path style="fill:#EF8829;" d="M266.712,189.569c-0.463,1.194-0.927,2.388-1.458,3.56
			C265.785,191.956,266.25,190.764,266.712,189.569z"/>
	</g>
	<g>
		<path style="fill:#EF8829;" d="M236.726,152.532c-7.053-24.834-28.699-49.791-58.961-68.243c0,0,0.001,0.001,0.002,0.002
			C208.028,102.743,229.673,127.698,236.726,152.532z"/>
		<path style="fill:#EF8829;" d="M180.753,88.926c-0.007-0.01-0.013-0.021-0.02-0.031C180.74,88.905,180.747,88.915,180.753,88.926z
			"/>
		<path style="fill:#EF8829;" d="M234.623,194.086c0.999-4.561,1.557-9.391,1.557-14.525c0-25.782-17.807-53.398-46.37-75.067
			c13.208,24.735,24.509,56.519,19.909,88.192c-2.509,17.273-9.508,32.832-20.884,46.555c2.415-1.222,4.852-2.534,7.286-3.952
			c23.778-13.854,37.77-31.48,41.818-52.503C237.157,186.756,236.037,190.521,234.623,194.086z"/>
		<path style="fill:#EF8829;" d="M238.176,181.456c0.177-1.035,0.341-2.074,0.471-3.125
			C238.513,179.387,238.356,180.428,238.176,181.456z"/>
		<path style="fill:#EF8829;" d="M238.959,175.34c0.037-0.463,0.071-0.928,0.099-1.395
			C239.029,174.412,238.997,174.878,238.959,175.34z"/>
		<path style="fill:#EF8829;" d="M183.775,93.843c-0.002-0.002-0.003-0.005-0.005-0.008
			C183.772,93.837,183.773,93.841,183.775,93.843z"/>
	</g>
	<g>
		<path style="fill:#EF8829;" d="M192.323,201.797c-0.258,0.851-0.54,1.693-0.827,2.533
			C191.782,203.49,192.066,202.648,192.323,201.797z"/>
		<path style="fill:#EF8829;" d="M190.096,208.116c0.367-0.917,0.724-1.837,1.055-2.767
			C190.819,206.279,190.464,207.2,190.096,208.116z"/>
		<path style="fill:#EF8829;" d="M191.707,196.185c5.521-37.857-15.974-77.6-31.974-101.177v151.039
			c10-8.189,19.119-17.348,25.043-27.406C188.202,211.565,190.557,204.077,191.707,196.185z"/>
		<path style="fill:#EF8829;" d="M188.534,211.74c0.448-0.971,0.88-1.947,1.286-2.933
			C189.412,209.792,188.983,210.77,188.534,211.74z"/>
		<path style="fill:#EF8829;" d="M195.101,186.776c3.893-39.23-19.368-79.724-35.368-101.778v0.031
			C175.733,107.112,198.979,147.628,195.101,186.776z"/>
		<path style="fill:#EF8829;" d="M194.828,190.555c0.002-0.01,0.004-0.021,0.006-0.031c0.145-0.997,0.256-1.997,0.365-2.996
			C195.089,188.538,194.975,189.548,194.828,190.555z"/>
		<path style="fill:#EF8829;" d="M186.816,215.226c0.527-1.005,1.031-2.018,1.512-3.04
			C187.847,213.208,187.344,214.221,186.816,215.226z"/>
		<path style="fill:#EF8829;" d="M193.331,198.147c-0.186,0.746-0.398,1.482-0.606,2.22
			C192.932,199.63,193.146,198.893,193.331,198.147z"/>
		<path style="fill:#EF8829;" d="M194.168,194.399c-0.11,0.56-0.246,1.111-0.368,1.667
			C193.922,195.51,194.058,194.959,194.168,194.399z"/>
		<path style="fill:#EF8829;" d="M184.951,218.584c0.6-1.02,1.174-2.049,1.723-3.088
			C186.124,216.535,185.55,217.564,184.951,218.584z"/>
	</g>
	<path style="fill:#3F2D20;" d="M246.576,89.289C231.742,76.823,214.4,67.581,195.721,61.96
		c-4.86-3.574-23.414-19.814-10.525-51.613c1.06-2.616,0.566-5.604-1.278-7.74c-1.844-2.137-4.728-3.062-7.472-2.392
		c-0.676,0.164-13.881,3.502-24.047,14.36c-10.166-10.858-23.37-14.195-24.047-14.36c-2.744-0.671-5.628,0.256-7.472,2.392
		c-1.844,2.136-2.338,5.125-1.278,7.74c12.891,31.804-5.669,48.043-10.527,51.614C90.4,67.581,73.059,76.824,58.224,89.289
		c-25.223,21.192-39.689,49.156-39.689,76.72c0,27.612,14.216,53.427,40.028,72.687c20.452,15.259,46.304,24.944,74.26,28.033
		c-4.778,6.328-12.154,11.168-15.48,12.898c-3.687,1.902-5.138,6.43-3.242,10.121c1.334,2.595,3.966,4.085,6.695,4.085
		c1.158,0,2.331-0.268,3.431-0.833c0.681-0.35,12.572-6.572,20.651-17.316v21.597c0,4.154,3.367,7.521,7.521,7.521
		c4.154,0,7.521-3.367,7.521-7.521v-21.595c8.079,10.744,19.967,16.965,20.649,17.314c1.099,0.564,2.271,0.832,3.426,0.832
		c2.721,0,5.348-1.486,6.684-4.073c1.904-3.684,0.458-8.218-3.221-10.13c-3.324-1.729-10.705-6.568-15.485-12.9
		c27.956-3.089,53.81-12.774,74.261-28.033c25.812-19.26,40.028-45.074,40.028-72.687
		C286.264,138.445,271.798,110.481,246.576,89.289z M95.08,192.685c2.503,17.232,9.474,32.759,20.803,46.459
		c-23.914-12.178-50.289-33.722-50.289-69.521c0-30.061,24.195-62.625,61.441-85.335C110.008,110.1,89.098,151.493,95.08,192.685z
		 M144.88,85.026v161.028c-20.035-15.271-31.759-33.885-34.907-55.486C104.097,150.266,128.727,107.823,144.88,85.026z
		 M67.9,100.805c12.336-10.365,26.624-18.246,42.026-23.347c-11.782,8.133-22.289,17.336-31.192,27.391
		c-18.437,20.822-28.181,43.221-28.181,64.775c0,26.642,11.977,49.85,34.843,67.986c-31.265-15.643-51.82-41.902-51.82-71.602
		C33.577,142.898,46.087,119.132,67.9,100.805z M152.427,55.612c-0.009,0-0.018,0-0.026,0c-0.022,0-0.043,0-0.065,0
		c-0.021,0.001-0.042,0.001-0.063,0.002c-6.559,0.005-13.067,0.434-19.485,1.27c4.336-7.971,7.968-19.63,5.646-34.834
		c2.604,2.152,5.1,4.866,6.989,8.252c1.446,2.593,4.199,3.989,6.976,3.84c2.777,0.149,5.531-1.247,6.976-3.84
		c1.889-3.386,4.386-6.102,6.989-8.252c-2.323,15.202,1.309,26.861,5.644,34.834c-6.404-0.836-12.9-1.263-19.447-1.27
		C152.517,55.613,152.472,55.612,152.427,55.612z M159.921,84.998c16.15,22.758,40.775,65.149,34.912,105.526
		c-3.14,21.617-14.868,40.245-34.912,55.523V84.998z M177.766,84.289c37.245,22.71,61.439,55.274,61.439,85.335
		c0,26.916-14.495,49.009-43.083,65.666c-2.434,1.418-4.871,2.73-7.286,3.952c11.376-13.723,18.375-29.282,20.884-46.555
		C215.701,151.494,194.791,110.1,177.766,84.289z M219.403,237.61c22.866-18.136,34.843-41.345,34.843-67.986
		c0-21.555-9.745-43.953-28.18-64.775c-8.903-10.056-19.411-19.257-31.192-27.391c15.403,5.102,29.691,12.983,42.027,23.347
		c21.812,18.327,34.322,42.094,34.322,65.203C271.223,195.709,250.668,221.967,219.403,237.61z"/>
</g>
<g>
</g>
<g>
</g>
<g>
</g>
<g>
</g>
<g>
</g>
<g>
</g>
<g>
</g>
<g>
</g>
<g>
</g>
<g>
</g>
<g>
</g>
<g>
</g>
<g>
</g>
<g>
</g>
<g>
</g>
</svg>
