<svg height="512pt" viewBox="0 0 512 512.00134" width="512pt" xmlns="http://www.w3.org/2000/svg"><path d="m401.042969 332.800781h85.335937v85.332031h-85.335937zm0 0" fill="#607d8b"/><path d="m179.175781 136.535156h-51.199219v-128l51.199219 34.132813zm0 0" fill="#cfd8dc"/><path d="m298.644531 477.867188c0 14.140624-11.460937 25.601562-25.601562 25.601562h-238.933594c-14.136719 0-25.597656-11.460938-25.597656-25.601562 0-14.136719 11.460937-25.597657 25.597656-25.597657h238.933594c14.140625 0 25.601562 11.460938 25.601562 25.597657zm0 0" fill="#2e7d32"/><path d="m273.042969 213.335938v126.71875c-11.527344 1.332031-23.152344 1.589843-34.730469.769531-46.335938-3.671875-59.5625-28.84375-101.800781-48.554688-19.457031-8.882812-40.953125-12.332031-62.210938-9.984375-13.835937 1.207032-27.394531 4.578125-40.191406 9.984375v-78.933593zm0 0" fill="#00838f"/><path d="m247.445312 213.335938v126.71875c-3.160156.339843-6.230468.597656-9.132812.769531-46.335938-3.671875-59.5625-28.84375-101.800781-48.554688-19.457031-8.882812-40.953125-12.332031-62.210938-9.984375-13.425781-1.328125-26.976562-.609375-40.191406 2.132813v-71.082031zm0 0" fill="#00bcd4"/><path d="m273.042969 322.988281v137.8125h-238.933594v-185.597656s51.203125-23.980469 102.402344 0c44.882812 20.90625 57 48.039063 110.933593 48.980469 8.550782.15625 17.101563-.242188 25.597657-1.195313zm0 0" fill="#9e9e9e"/><path d="m247.445312 324.183594v136.617187h-213.335937v-185.597656s51.203125-23.980469 102.402344 0c44.882812 20.90625 57 48.039063 110.933593 48.980469zm0 0" fill="#f5f5f5"/><path d="m230.378906 145.066406v34.136719h-153.601562v-34.136719c.027344-9.414062 7.652344-17.035156 17.066406-17.066406h119.46875c9.414062.03125 17.035156 7.652344 17.066406 17.066406zm0 0" fill="#2e7d32"/><path d="m204.777344 145.066406v34.136719h-128v-34.136719c.027344-9.414062 7.652344-17.035156 17.066406-17.066406h93.867188c9.414062.03125 17.039062 7.652344 17.066406 17.066406zm0 0" fill="#4caf50"/><path d="m418.109375 418.132812v85.335938h-76.796875c-4.714844 0-8.535156-3.820312-8.535156-8.535156v-76.800782zm0 0" fill="#607d8b"/><path d="m494.910156 426.667969v68.265625c0 4.714844-3.820312 8.535156-8.53125 8.535156h-76.800781v-85.335938h76.800781c4.710938 0 8.53125 3.824219 8.53125 8.535157zm0 0" fill="#9e9e9e"/><path d="m401.042969 332.800781v85.332031h-76.800781c-4.710938 0-8.53125-3.820312-8.53125-8.53125v-68.265624c0-4.714844 3.820312-8.535157 8.53125-8.535157zm0 0" fill="#9e9e9e"/><path d="m418.109375 247.46875v85.332031h-85.332031v-76.800781c0-4.710938 3.820312-8.53125 8.535156-8.53125zm0 0" fill="#607d8b"/><path d="m494.910156 256v68.269531c0 4.710938-3.820312 8.53125-8.53125 8.53125h-76.800781v-85.332031h76.800781c4.710938 0 8.53125 3.820312 8.53125 8.53125zm0 0" fill="#9e9e9e"/><path d="m477.84375 426.667969v68.265625c0 4.714844-3.820312 8.535156-8.53125 8.535156h-59.734375v-85.335938h59.734375c4.710938 0 8.53125 3.824219 8.53125 8.535157zm0 0" fill="#f5f5f5"/><path d="m375.445312 332.800781v85.332031h-51.203124c-4.710938 0-8.53125-3.820312-8.53125-8.53125v-68.265624c0-4.714844 3.820312-8.535157 8.53125-8.535157zm0 0" fill="#f5f5f5"/><path d="m477.84375 256v68.269531c0 4.710938-3.820312 8.53125-8.53125 8.53125h-59.734375v-85.332031h59.734375c4.710938 0 8.53125 3.820312 8.53125 8.53125zm0 0" fill="#f5f5f5"/><path d="m383.976562 162.132812h68.265626c4.714843 0 8.535156 3.824219 8.535156 8.535157v68.265625c0 4.714844-3.820313 8.535156-8.535156 8.535156h-68.265626c-4.710937 0-8.53125-3.820312-8.53125-8.535156v-68.265625c0-4.710938 3.820313-8.535157 8.53125-8.535157zm0 0" fill="#607d8b"/><g fill="#cfd8dc"><path d="m401.042969 332.800781h59.734375v85.332031h-59.734375zm0 0"/><path d="m392.511719 418.132812v85.335938h-51.199219c-4.714844 0-8.535156-3.820312-8.535156-8.535156v-76.800782zm0 0"/><path d="m392.511719 247.46875v85.332031h-59.734375v-76.800781c0-4.710938 3.820312-8.53125 8.535156-8.53125zm0 0"/><path d="m383.976562 162.132812h42.667969c4.710938 0 8.53125 3.824219 8.53125 8.535157v68.265625c0 4.714844-3.820312 8.535156-8.53125 8.535156h-42.667969c-4.710937 0-8.53125-3.820312-8.53125-8.535156v-68.265625c0-4.710938 3.820313-8.535157 8.53125-8.535157zm0 0"/></g><path d="m298.644531 196.269531c0 14.136719-11.460937 25.597657-25.601562 25.597657h-238.933594c-14.136719 0-25.597656-11.460938-25.597656-25.597657 0-14.140625 11.460937-25.601562 25.597656-25.601562h238.933594c14.140625 0 25.601562 11.460937 25.601562 25.601562zm0 0" fill="#2e7d32"/><path d="m273.042969 477.867188c0 14.140624-11.460938 25.601562-25.597657 25.601562h-213.335937c-14.136719 0-25.597656-11.460938-25.597656-25.601562 0-14.136719 11.460937-25.597657 25.597656-25.597657h213.335937c14.136719 0 25.597657 11.460938 25.597657 25.597657zm0 0" fill="#4caf50"/><path d="m273.042969 196.269531c0 14.136719-11.460938 25.597657-25.597657 25.597657h-213.335937c-14.136719 0-25.597656-11.460938-25.597656-25.597657 0-14.140625 11.460937-25.601562 25.597656-25.601562h213.335937c14.136719 0 25.597657 11.460937 25.597657 25.601562zm0 0" fill="#4caf50"/><path d="m281.578125 444.945312v-215.753906c16.625-4.28125 27.46875-20.261718 25.300781-37.292968-2.167968-17.027344-16.667968-29.785157-33.835937-29.765626h-34.132813v-17.066406c0-14.136718-11.460937-25.597656-25.597656-25.597656h-25.601562v-76.800781c0-2.851563-1.425782-5.515625-3.796876-7.101563l-51.199218-34.132812c-2.621094-1.746094-5.988282-1.910156-8.761719-.425782-2.777344 1.488282-4.507813 4.378907-4.507813 7.527344v110.933594h-25.601562c-14.136719 0-25.601562 11.460938-25.601562 25.597656v17.066406h-34.132813c-17.164063-.019531-31.667969 12.738282-33.832031 29.765626-2.167969 17.03125 8.675781 33.011718 25.300781 37.292968v215.753906c-16.625 4.28125-27.46875 20.261719-25.300781 37.292969 2.164062 17.027344 16.667968 29.785157 33.832031 29.761719h238.933594c17.167969.023438 31.667969-12.734375 33.835937-29.761719 2.167969-17.03125-8.675781-33.011719-25.300781-37.292969zm-17.066406-129.757812c-44.800781 3.304688-62.125-8.53125-85.566407-24.625-12.246093-8.816406-25.234374-16.554688-38.816406-23.125-30.8125-13.535156-65.550781-15.148438-97.484375-4.53125v-32.503906h221.867188zm-221.867188-34.25c29.21875-10.96875 61.535157-10.265625 90.246094 1.960938 12.742187 6.175781 24.921875 13.449218 36.398437 21.742187 21.835938 14.941406 41.070313 28.160156 81.285157 28.160156 4.355469 0 9.054687-.210937 13.9375-.535156v111.46875h-221.867188zm93.867188-256.460938 34.132812 22.757813v72.234375h-34.132812zm-51.199219 120.589844c0-4.710937 3.820312-8.53125 8.53125-8.53125h119.46875c4.710938 0 8.53125 3.820313 8.53125 8.53125v17.066406h-136.53125zm-68.269531 51.203125c0-9.425781 7.640625-17.066406 17.066406-17.066406h238.933594c9.425781 0 17.066406 7.640625 17.066406 17.066406s-7.640625 17.066407-17.066406 17.066407h-238.933594c-9.425781 0-17.066406-7.640626-17.066406-17.066407zm256 298.664063h-238.933594c-9.425781 0-17.066406-7.640625-17.066406-17.066406 0-9.425782 7.640625-17.066407 17.066406-17.066407h238.933594c9.425781 0 17.066406 7.640625 17.066406 17.066407 0 9.425781-7.640625 17.066406-17.066406 17.066406zm0 0"/><path d="m74.300781 321.792969c2.445313-2.441407 3.15625-6.125 1.792969-9.300781-.433594-1.035157-1.039062-1.984376-1.792969-2.816407-2.453125-2.421875-6.121093-3.128906-9.300781-1.792969-1.054688.394532-2.011719 1.003907-2.816406 1.792969-.75.832031-1.355469 1.78125-1.789063 2.816407-.910156 2.066406-.910156 4.417968 0 6.484374.433594 1.035157 1.039063 1.984376 1.789063 2.816407 3.367187 3.300781 8.753906 3.300781 12.117187 0zm0 0"/><path d="m116.96875 318.199219c-2.453125-2.417969-6.121094-3.125-9.300781-1.789063-1.054688.390625-2.015625 1-2.816407 1.789063-.753906.832031-1.359374 1.785156-1.792968 2.816406-.910156 2.066406-.910156 4.421875 0 6.488281.4375 1.03125 1.042968 1.984375 1.792968 2.8125 2.882813 2.871094 7.386719 3.308594 10.765626 1.046875 3.378906-2.257812 4.695312-6.589843 3.144531-10.347656-.433594-1.03125-1.039063-1.984375-1.792969-2.816406zm0 0"/><path d="m73.535156 342.015625c-1.054687.394531-2.015625 1.003906-2.816406 1.792969-.753906.832031-1.359375 1.78125-1.792969 2.816406-.910156 2.066406-.910156 4.417969 0 6.484375.4375 1.035156 1.042969 1.984375 1.792969 2.816406 2.878906 2.871094 7.386719 3.308594 10.765625 1.046875 3.378906-2.257812 4.695313-6.589844 3.144531-10.347656-.433594-1.035156-1.039062-1.984375-1.792968-2.816406-2.453126-2.421875-6.125-3.128906-9.300782-1.792969zm0 0"/><path d="m151.101562 360.875c-2.453124-2.421875-6.121093-3.128906-9.300781-1.792969-1.054687.394531-2.015625 1.003907-2.816406 1.792969-.753906.832031-1.359375 1.785156-1.792969 2.816406-.90625 2.066406-.90625 4.417969 0 6.484375.4375 1.035157 1.042969 1.984375 1.792969 2.816407 2.882813 2.871093 7.386719 3.308593 10.765625 1.046874 3.378906-2.257812 4.695312-6.589843 3.144531-10.347656-.433593-1.03125-1.039062-1.984375-1.792969-2.816406zm0 0"/><path d="m99.902344 377.941406c-2.453125-2.421875-6.125-3.128906-9.300782-1.789062-1.054687.390625-2.015624 1-2.816406 1.789062-.753906.832032-1.359375 1.785156-1.792968 2.816406-.910157 2.066407-.910157 4.421876 0 6.484376.4375 1.035156 1.042968 1.988281 1.792968 2.816406 2.882813 2.871094 7.386719 3.308594 10.765625 1.046875 3.378907-2.257813 4.695313-6.589844 3.144531-10.347657-.433593-1.03125-1.039062-1.984374-1.792968-2.816406zm0 0"/><path d="m82.835938 412.074219c-2.453126-2.417969-6.125-3.125-9.300782-1.789063-1.054687.390625-2.015625 1-2.816406 1.789063-.753906.832031-1.359375 1.785156-1.792969 2.816406-.910156 2.066406-.910156 4.421875 0 6.488281.4375 1.03125 1.042969 1.984375 1.792969 2.8125 2.878906 2.871094 7.386719 3.308594 10.765625 1.046875 3.378906-2.257812 4.695313-6.589843 3.144531-10.347656-.433594-1.03125-1.039062-1.984375-1.792968-2.816406zm0 0"/><path d="m134.71875 398.253906c-2.453125-2.421875-6.125-3.128906-9.300781-1.792968-1.054688.390624-2.015625 1-2.816407 1.792968-.753906.828125-1.359374 1.78125-1.792968 2.8125-.910156 2.066406-.910156 4.421875 0 6.488282.4375 1.03125 1.042968 1.984374 1.792968 2.816406 2.878907 2.867187 7.386719 3.304687 10.765626 1.042968 3.378906-2.257812 4.695312-6.589843 3.144531-10.347656-.433594-1.03125-1.039063-1.984375-1.792969-2.8125zm0 0"/><path d="m185.234375 412.066406c-2.453125-2.421875-6.121094-3.128906-9.300781-1.789062-1.054688.390625-2.011719 1-2.816406 1.789062-.75.832032-1.359376 1.785156-1.789063 2.816406-.910156 2.066407-.910156 4.417969 0 6.484376.433594 1.035156 1.039063 1.984374 1.789063 2.816406 2.882812 2.871094 7.386718 3.308594 10.765624 1.046875 3.378907-2.257813 4.695313-6.589844 3.144532-10.347657-.433594-1.03125-1.039063-1.984374-1.792969-2.816406zm0 0"/><path d="m210.835938 377.941406c-2.453126-2.421875-6.125-3.128906-9.300782-1.789062-1.054687.390625-2.015625 1-2.816406 1.789062-.753906.832032-1.359375 1.785156-1.792969 2.816406-.910156 2.066407-.910156 4.421876 0 6.484376.4375 1.035156 1.042969 1.988281 1.792969 2.816406 2.878906 2.871094 7.386719 3.308594 10.765625 1.046875 3.378906-2.257813 4.695313-6.589844 3.144531-10.347657-.433594-1.03125-1.039062-1.984374-1.792968-2.816406zm0 0"/><path d="m176.703125 338.859375c2.441406-2.441406 3.152344-6.125 1.792969-9.300781-.433594-1.035156-1.039063-1.984375-1.792969-2.816406-2.453125-2.421876-6.125-3.128907-9.300781-1.792969-1.054688.394531-2.015625 1.003906-2.816406 1.792969-.753907.832031-1.359376 1.78125-1.792969 2.816406-.910157 2.066406-.910157 4.417968 0 6.484375.433593 1.035156 1.042969 1.984375 1.792969 2.816406 3.363281 3.300781 8.75 3.300781 12.117187 0zm0 0"/><path d="m244.96875 412.074219c-2.453125-2.417969-6.121094-3.125-9.300781-1.789063-1.054688.390625-2.015625 1-2.816407 1.789063-.753906.832031-1.359374 1.785156-1.792968 2.816406-.910156 2.066406-.910156 4.421875 0 6.488281.4375 1.03125 1.042968 1.984375 1.792968 2.8125 2.882813 2.871094 7.386719 3.308594 10.765626 1.046875 3.378906-2.257812 4.695312-6.589843 3.144531-10.347656-.433594-1.03125-1.039063-1.984375-1.792969-2.816406zm0 0"/><path d="m244.96875 352.34375c-2.453125-2.421875-6.121094-3.128906-9.300781-1.792969-1.054688.390625-2.015625 1.003907-2.816407 1.792969-.753906.828125-1.359374 1.78125-1.792968 2.816406-.910156 2.066406-.910156 4.417969 0 6.484375.4375 1.03125 1.042968 1.984375 1.792968 2.816407 2.882813 2.867187 7.386719 3.304687 10.765626 1.046874 3.378906-2.261718 4.695312-6.589843 3.144531-10.347656-.433594-1.035156-1.039063-1.988281-1.792969-2.816406zm0 0"/><path d="m494.910156 238.933594h-25.597656v-68.265625c0-9.425781-7.644531-17.066407-17.070312-17.066407h-68.265626c-9.425781 0-17.066406 7.640626-17.066406 17.066407v68.265625h-25.597656c-9.425781 0-17.070312 7.640625-17.070312 17.066406v68.269531c-9.421876 0-17.066407 7.640625-17.066407 17.066407v68.265624c0 9.425782 7.644531 17.066407 17.066407 17.066407v68.265625c0 9.425781 7.644531 17.066406 17.070312 17.066406h153.597656c9.425782 0 17.066406-7.640625 17.066406-17.066406v-68.265625c0-9.425781-7.640624-17.066407-17.066406-17.066407v-68.265624c9.425782 0 17.066406-7.640626 17.066406-17.066407v-68.269531c0-9.425781-7.640624-17.066406-17.066406-17.066406zm-110.933594-68.265625h68.265626v68.265625h-68.265626zm-42.664062 85.332031h68.265625v68.269531h-68.265625zm-17.070312 85.335938h68.269531v68.265624h-68.269531zm17.070312 85.332031h68.265625v68.265625h-68.265625zm153.597656 68.265625h-68.265625v-68.265625h68.265625zm-17.066406-85.332032h-68.265625v-68.265624h68.265625zm8.535156-85.332031h-59.734375v-68.269531h68.265625v68.269531zm0 0"/></svg>