<svg height="480pt" viewBox="0 -60 480.00049 480" width="480pt" xmlns="http://www.w3.org/2000/svg"><path d="m266.351562 319.503906h-150.183593c-55.320313 0-100.167969-44.847656-100.167969-100.167968 0-36.855469 20.234375-70.730469 52.679688-88.203126 97.386718-52.429687 214.195312-54.199218 313.121093-4.734374l30.273438 15.136718c31.820312 15.914063 51.925781 48.441406 51.925781 84.023438.003906 51.886718-42.058594 93.949218-93.945312 93.945312zm0 0" fill="#f6b554"/><path d="m192 245.148438c0 41.066406 33.289062 74.355468 74.351562 74.355468 29.230469-.003906 57.261719-11.613281 77.929688-32.28125 20.699219-20.699218 34.929688-46.972656 40.960938-75.617187l22.757812-108.101563-32-24-52.273438 22.871094c-49.363281 21.59375-91.175781 57.40625-120.101562 102.863281-7.59375 11.925781-11.625 25.773438-11.625 39.910157zm0 0" fill="#ee9621"/><path d="m408 103.503906 16-16 19.289062 9.597656c7.59375 3.800782 16.765626 2.3125 22.765626-3.695312 7.699218-7.703125 7.699218-20.183594 0-27.886719-6.441407-6.425781-15.171876-10.027343-24.269532-10.015625h-17.785156v-18.515625c0-8.632812-3.429688-16.914062-9.535156-23.023437-7.988282-7.992188-20.941406-7.992188-28.929688 0-5.785156 5.785156-7.566406 14.460937-4.527344 22.058594l10.992188 27.480468-16 16zm0 0" fill="#ccc"/><path d="m8 319.503906h464c0 17.671875-14.328125 32-32 32h-400c-17.671875 0-32-14.328125-32-32zm0 0" fill="#27689e"/><path d="m112 271.503906c0 17.671875-14.328125 32-32 32s-32-14.328125-32-32c0-17.675781 14.328125-32 32-32s32 14.324219 32 32zm0 0" fill="#f15a24"/><path d="m216 271.503906c0 17.671875-14.328125 32-32 32s-32-14.328125-32-32c0-17.675781 14.328125-32 32-32s32 14.324219 32 32zm0 0" fill="#f7996a"/><path d="m328 271.503906c0 17.671875-14.328125 32-32 32s-32-14.328125-32-32c0-17.675781 14.328125-32 32-32s32 14.324219 32 32zm0 0" fill="#f15a24"/><path d="m432 271.503906c0 17.671875-14.328125 32-32 32s-32-14.328125-32-32c0-17.675781 14.328125-32 32-32s32 14.324219 32 32zm0 0" fill="#f15a24"/><g fill="#f7931e"><path d="m72 159.503906h16v16h-16zm0 0"/><path d="m96 191.503906h16v16h-16zm0 0"/><path d="m128 135.503906h16v16h-16zm0 0"/></g><path d="m112 267.503906c0-19.882812 16.117188-36 36-36 6.628906 0 12 5.371094 12 12 0 6.625-5.371094 12-12 12-6.625 0-12 5.371094-12 12 0 6.625-5.371094 12-12 12-6.625 0-12-5.375-12-12zm0 0" fill="#b9c55a"/><path d="m216 267.503906c0-19.882812 16.117188-36 36-36 6.628906 0 12 5.371094 12 12 0 6.625-5.371094 12-12 12-6.625 0-12 5.371094-12 12 0 6.625-5.371094 12-12 12-6.625 0-12-5.375-12-12zm0 0" fill="#a9c358"/><path d="m328 267.503906c0-19.882812 16.117188-36 36-36 6.628906 0 12 5.371094 12 12 0 6.625-5.371094 12-12 12-6.625 0-12 5.371094-12 12 0 6.625-5.371094 12-12 12-6.625 0-12-5.375-12-12zm0 0" fill="#a9c358"/><path d="m24 319.503906-4.6875-4.691406c-7.242188-7.242188-11.3125-17.066406-11.3125-27.308594-.003906-4.023437 2.417969-7.652344 6.132812-9.191406 3.714844-1.542969 7.992188-.6875 10.835938 2.15625 1.863281 1.867188 4.394531 2.917969 7.03125 2.917969 2.640625 0 5.167969-1.050781 7.03125-2.917969l4.96875-4.964844c6.628906-6.625 17.371094-6.625 24 0 6.628906 6.621094 17.371094 6.621094 24 0 6.628906-6.625 17.371094-6.625 24 0 6.628906 6.621094 17.371094 6.621094 24 0 6.628906-6.625 17.371094-6.625 24 0 6.628906 6.621094 17.371094 6.621094 24 0 6.628906-6.625 17.371094-6.625 24 0 6.628906 6.621094 17.371094 6.621094 24 0 6.628906-6.625 17.371094-6.625 24 0 6.628906 6.621094 17.371094 6.621094 24 0 6.628906-6.625 17.371094-6.625 24 0 6.628906 6.621094 17.371094 6.621094 24 0 6.628906-6.625 17.371094-6.625 24 0 6.628906 6.621094 17.371094 6.621094 24 0 6.628906-6.625 17.371094-6.625 24 0l4 4c6.628906 6.621094 17.371094 6.621094 24 0l4-4c6.628906-6.625 17.371094-6.625 24 0l1.601562 1.597656c5.984376 5.964844 6.664063 15.421876 1.597657 22.183594l-15.199219 20.21875zm0 0" fill="#557c3e"/><path d="m0 319.503906c.0273438 22.078125 17.921875 39.972656 40 40h400c22.082031-.027344 39.972656-17.921875 40-40 0-4.421875-3.582031-8-8-8h-8l5.601562-7.425781c7.402344-9.957031 6.417969-23.832031-2.320312-32.640625l-1.601562-1.597656c-.890626-.855469-1.855469-1.628906-2.878907-2.320313 22.828125-49.832031 1.949219-108.78125-47.152343-133.136719l-5.40625-2.703124 5.09375-24.203126 10.242187-10.238281 14.125 7.0625c12.164063 6.074219 26.9375 2.433594 34.886719-8.59375 7.945312-11.03125 6.726562-26.195312-2.886719-35.8125-7.917969-7.960937-18.691406-12.425781-29.917969-12.390625h-9.785156v-10.515625c.03125-10.765625-4.246094-21.09375-11.878906-28.6875-9.558594-9.527343-24.496094-11.027343-35.761719-3.597656-11.265625 7.433594-15.757813 21.757813-10.757813 34.296875l9.03125 22.574219-11.199218 11.199219-50.273438 21.992187c-86.003906-23.605469-177.800781-13.105469-256.246094 29.320313-52.324218 28.148437-72.140624 93.230468-44.386718 145.761718-5.148438-.820312-10.398438.667969-14.355469 4.070313-3.953125 3.402343-6.2109375 8.367187-6.171875 13.585937-.00390625 8.550782 2.363281 16.941406 6.839844 24.230469-3.894532.527344-6.8125002 3.835937-6.839844 7.769531zm440 24h-400c-10.167969-.015625-19.230469-6.421875-22.632812-16h445.265624c-3.402343 9.578125-12.464843 15.984375-22.632812 16zm-31.503906-194.808594c42.117187 20.902344 59.460937 71.882813 38.832031 114.136719-2.746094.066407-5.464844.570313-8.054687 1.484375-1.953126-11.503906-8.902344-21.550781-18.980469-27.4375-10.074219-5.882812-22.242188-7-33.21875-3.046875 2.460937-6.71875 4.464843-13.589843 6-20.578125l13.757812-65.390625zm-288.496094 118.808594c0-15.464844 12.535156-28 28-28 2.210938 0 4 1.789063 4 4 0 2.207032-1.789062 4-4 4-11.046875 0-20 8.953125-20 20-.113281 2.132813-1.863281 3.816406-4 3.847656-.847656-.371093-1.628906-.878906-2.3125-1.503906-.40625-.410156-.878906-.699218-1.3125-1.074218-.195312-.398438-.324219-.828126-.375-1.269532zm64-20c10.136719.035156 19.15625 6.441406 22.535156 16-8.613281-2.386718-17.847656.027344-24.191406 6.328125-3.550781 3.390625-9.136719 3.390625-12.6875 0-2.410156-2.410156-5.292969-4.292969-8.464844-5.539062 3.078125-10.007813 12.339844-16.828125 22.808594-16.789063zm46.34375 22.34375c-.734375.675782-1.582031 1.21875-2.503906 1.597656-2.144532-.085937-3.839844-1.851562-3.839844-4 .03125-15.441406 12.558594-27.941406 28-27.941406 2.210938 0 4 1.789063 4 4 0 2.207032-1.789062 4-4 4-11.046875 0-20 8.953125-20 20-.015625.402344-.097656.800782-.238281 1.183594-.464844.414062-.976563.71875-1.417969 1.160156zm26.679688-7.066406c-.101563.464844-.199219.929688-.277344 1.394531-.953125-.34375-1.921875-.632812-2.90625-.859375 1.074218-.089844 2.140625-.269531 3.183594-.535156zm15.089843 9.664062c0-.320312-.113281-.625-.113281-.941406 0-13.257812 10.746094-24 24-24s24 10.742188 24 24c0 .316406-.09375.621094-.113281.941406-2.335938-.015624-4.574219-.949218-6.230469-2.597656-9.757812-9.734375-25.554688-9.734375-35.3125 0-1.65625 1.648438-3.894531 2.582032-6.230469 2.597656zm64.238281-8.429687c1.753907-13.957031 13.585938-24.445313 27.648438-24.511719 2.210938 0 4 1.789063 4 4 0 2.207032-1.789062 4-4 4-9.222656.023438-17.234375 6.351563-19.390625 15.316406-2.800781-.046874-5.585937.355469-8.257813 1.195313zm23.648438 3.488281c.019531-.707031.230469-1.390625.609375-1.984375-.160156 1.054688-.257813 2.132813-.328125 3.199219l-.367188-.296875c.007813-.296875.085938-.601563.085938-.917969zm16.328125.71875c1.125-8.628906 6.847656-15.96875 14.941406-19.167968 8.09375-3.195313 17.285157-1.746094 24.007813 3.785156 6.71875 5.53125 9.90625 14.273437 8.324218 22.832031-3.375 1.5-7.324218.773437-9.945312-1.824219l-4-4c-9.054688-9-23.441406-9.699218-33.328125-1.625zm14.871094-248.601562c4.867187-4.84375 12.734375-4.84375 17.601562 0 4.625 4.597656 7.214844 10.851562 7.199219 17.367187v18.515625c0 4.417969 3.582031 8 8 8h17.785156c6.972656.015625 13.660156 2.785156 18.605469 7.703125 4.0625 4.066407 4.578125 10.476563 1.21875 15.136719-3.359375 4.664062-9.601563 6.207031-14.746094 3.644531l-19.285156-9.644531c-3.082031-1.539062-6.800781-.933594-9.234375 1.503906l-11.09375 11.09375-19.074219-14.304687 9.480469-9.480469c2.265625-2.261719 2.960938-5.65625 1.769531-8.628906l-10.984375-27.472656c-1.855468-4.625-.769531-9.914063 2.757813-13.433594zm-16.261719 69.082031 24.183594 18.136719-21.703125 103.117187c-1.15625 5.351563-2.617188 10.628907-4.378907 15.808594-2.789062-1.464844-5.886718-2.242187-9.039062-2.261719-15.640625.019532-30.097656 8.34375-37.96875 21.863282-13.722656-16.160157-37.78125-18.535157-54.398438-5.367188-1.695312-9.523438-9.960937-16.46875-19.632812-16.496094-15.640625.019532-30.097656 8.34375-37.96875 21.863282-3.648438-4.222657-8.136719-7.632813-13.183594-10.015626 1.34375-9.183593 4.597656-17.980468 9.554688-25.824218 28.03125-44.152344 68.621094-78.914063 116.558594-99.824219zm-302.457031 49.472656c69.164062-37.394531 149.402343-48.867187 226.273437-32.355469-41.484375 22.546876-76.546875 55.28125-101.882812 95.121094-5.894532 9.34375-9.855469 19.777344-11.648438 30.679688-.414062 0-.796875-.117188-1.222656-.117188-6.109375.027344-12.132812 1.460938-17.597656 4.191406-3.132813-7.386718-10.378906-12.1875-18.402344-12.191406-15.640625.019532-30.097656 8.34375-37.96875 21.863282-10.453125-12.203126-27.238281-16.898438-42.507812-11.886719-15.265626 5.011719-26.003907 18.738281-27.195313 34.765625-.496094.398437-1.023437.761718-1.496094 1.207031-9.734375-14.898437-14.890625-32.320313-14.832031-50.117187-.027344-33.921876 18.601562-65.105469 48.480469-81.160157zm29.695312 124.527344c-5.964843.390625-11.585937 2.921875-15.832031 7.128906-3.550781 3.390625-9.136719 3.390625-12.6875 0-4.308594-4.183593-10-6.648437-16-6.929687 3.488281-9.242188 12.3125-15.375 22.191406-15.421875 9.878906-.042969 18.757813 6.011719 22.328125 15.222656zm-84.976562 23.007813c.71875-.347657 1.582031-.179688 2.113281.414062 7.011719 7 18.363281 7 25.375 0l4.96875-4.96875c3.507812-3.496094 9.183594-3.496094 12.6875 0 9.757812 9.734375 25.554688 9.734375 35.3125 0 3.507812-3.496094 9.183594-3.496094 12.6875 0 2.789062 2.757812 6.195312 4.804688 9.9375 5.976562h.121094c8.878906 2.894532 18.628906.574219 25.253906-6.007812 3.507812-3.496094 9.183594-3.496094 12.6875 0 9.757812 9.734375 25.554688 9.734375 35.3125 0 3.507812-3.496094 9.183594-3.496094 12.6875 0 6.667969 6.617188 16.484375 8.925781 25.402344 5.96875 4.6875-.921875 8.890625-3.492188 11.847656-7.246094 3.457031-2.070312 7.875-1.542968 10.75 1.277344 9.757812 9.734375 25.554688 9.734375 35.3125 0 3.550781-3.390625 9.136719-3.390625 12.6875 0 9.757812 9.734375 25.554688 9.734375 35.3125 0 3.507812-3.496094 9.183594-3.496094 12.6875 0 9.878906 9.441406 25.433594 9.441406 35.3125 0 3.507812-3.496094 9.183594-3.496094 12.6875 0l4 4c9.757812 9.734375 25.554688 9.734375 35.3125 0l4-4c3.507812-3.496094 9.183594-3.496094 12.6875 0l1.601562 1.601562c3.128907 3.171876 3.46875 8.15625.800782 11.726563l-12.746094 17.050781h-416.6875l-2.34375-2.347656c-5.765625-5.726562-8.992188-13.527344-8.96875-21.652344-.042969-.800781.449219-1.527344 1.199219-1.792968zm0 0"/><path d="m72 159.503906h16v16h-16zm0 0"/><path d="m96 191.503906h16v16h-16zm0 0"/><path d="m128 135.503906h16v16h-16zm0 0"/></svg>